<svg width="60" height="68" viewBox="0 0 60 68" fill="none" xmlns="http://www.w3.org/2000/svg">
<path d="M7.18145 41.4629C7.88175 41.5989 8.60166 41.5989 9.30196 41.4629C10.0901 41.3608 10.8782 41.2304 11.6663 41.1227C12.1709 41.0546 12.959 40.9753 13.577 40.9072C14.4435 40.8993 15.3038 40.7597 16.1284 40.4933C16.3568 40.3582 16.5401 40.1585 16.6551 39.9193C16.7701 39.6802 16.8118 39.4123 16.7748 39.1496C16.7405 38.8869 16.6306 38.6399 16.4585 38.4386C16.2863 38.2373 16.0594 38.0903 15.8053 38.0156C14.9814 37.8977 14.1428 37.9362 13.3332 38.129C12.5621 38.2254 11.7967 38.3615 11.0313 38.5145C9.61948 38.7924 7.91286 39.0815 6.82992 40.1021C6.73354 40.2017 6.6645 40.3244 6.62947 40.4585C6.59444 40.5926 6.5946 40.7334 6.62995 40.8674C6.66531 41.0014 6.73464 41.124 6.83126 41.2234C6.92787 41.3227 7.04849 41.3954 7.18145 41.4345V41.4629Z" fill="#D61016"/>
<path d="M3.87595 45.0972C4.52798 46.0781 5.99646 45.7662 6.98868 45.6642C8.23037 45.5394 9.47206 45.3637 10.7081 45.2219L14.4445 44.791C15.0455 44.723 15.6522 44.6379 16.2589 44.5982C16.9959 44.5529 17.6366 44.7003 18.3283 44.3658C18.4798 44.2749 18.6087 44.1509 18.7053 44.003C18.8019 43.8552 18.8637 43.6874 18.8861 43.5122C18.9085 43.337 18.8908 43.159 18.8345 42.9916C18.7781 42.8242 18.6846 42.6718 18.5608 42.5458C17.665 41.6443 16.1114 42.0241 14.9775 42.1659C13.6621 42.336 12.3523 42.5117 11.0483 42.7329C9.74422 42.954 8.57623 43.1411 7.35721 43.4019C6.22249 43.573 5.11623 43.8972 4.06872 44.3658C3.9522 44.4426 3.8681 44.5597 3.83253 44.6946C3.79696 44.8296 3.81243 44.9729 3.87595 45.0972Z" fill="#D61016"/>
<path d="M2.70228 49.2249C3.71718 50.2965 5.16865 50.0243 6.48972 49.9109C7.81079 49.7975 9.22825 49.7068 10.6004 49.6218C11.9725 49.5367 13.3502 49.4857 14.7223 49.4687C16.1908 49.4687 17.7614 49.6161 19.2015 49.3723C20.4942 49.1568 20.4205 47.1044 19.2015 46.8379C17.8112 46.6279 16.4011 46.5822 15.0001 46.7018C13.6224 46.7301 12.2503 46.7925 10.8725 46.8889C9.49474 46.9853 8.08295 47.1327 6.68817 47.3255C5.44044 47.5145 4.20577 47.7815 2.99144 48.1249C2.88152 48.157 2.78178 48.217 2.70191 48.299C2.62204 48.381 2.56476 48.4824 2.53565 48.5931C2.50654 48.7038 2.50659 48.8202 2.53579 48.9309C2.56499 49.0416 2.62234 49.1429 2.70228 49.2249Z" fill="#D61016"/>
<path d="M2.52084 53.3695C2.793 54.6736 5.08929 54.1633 6.00213 54.0783C7.53865 53.9422 9.07517 53.8288 10.6174 53.7664C12.1596 53.704 13.6167 53.7097 15.1135 53.7664C15.8393 53.8004 16.565 53.8458 17.2907 53.9025C18.1168 54.039 18.9561 54.0771 19.7911 54.0159C20.8004 53.8628 21.0385 52.1505 20.086 51.748C19.3186 51.4758 18.513 51.3265 17.699 51.3057C16.8825 51.2263 16.0661 51.164 15.2496 51.1356C13.6621 51.0789 12.0688 51.0903 10.4813 51.1866C8.91916 51.2763 7.36434 51.4657 5.82635 51.7536C5.0438 51.9037 4.27271 52.1083 3.51873 52.366C3.07081 52.5134 2.38477 52.7345 2.52084 53.3468V53.3695Z" fill="#D61016"/>
<path d="M3.12184 58.9316C4.56476 59.0857 6.01912 59.1009 7.46494 58.977C8.89373 58.9203 10.2998 58.9146 11.7457 58.926C13.1915 58.9373 14.5806 58.926 16.032 59.0337C16.7691 59.0734 17.5062 59.1187 18.2376 59.1811C18.9867 59.3174 19.7533 59.327 20.5055 59.2094C21.4638 58.9656 21.7416 57.4631 20.7947 56.9982C20.0726 56.7139 19.3029 56.5696 18.5268 56.573C17.7897 56.5163 17.0526 56.4709 16.3212 56.4312C14.8471 56.3575 13.3729 56.3122 11.8987 56.3348C10.4246 56.3575 8.94476 56.4596 7.47627 56.5843C5.99775 56.637 4.53476 56.9044 3.13319 57.3781C2.49816 57.6332 2.25436 58.7956 3.13319 58.9316H3.12184Z" fill="#D61016"/>
<path d="M1.9085 64.6014C2.65885 64.7318 3.42609 64.7318 4.17644 64.6014C4.94187 64.539 5.70729 64.4313 6.44437 64.3292C8.04893 64.1137 9.65349 63.9607 11.2694 63.8473C14.4816 63.6175 17.7081 63.6839 20.9081 64.0457C21.2795 64.0457 21.6357 63.8982 21.8984 63.6355C22.161 63.3729 22.3086 63.0167 22.3086 62.6453C22.3086 62.2738 22.161 61.9176 21.8984 61.655C21.6357 61.3924 21.2795 61.2448 20.9081 61.2448C17.6147 60.9859 14.3055 60.9991 11.0143 61.2845C9.3726 61.4351 7.73953 61.6678 6.12119 61.9819C5.3261 62.1282 4.54329 62.3348 3.77954 62.5999C3.01016 62.7968 2.28875 63.1479 1.65902 63.6318C1.58312 63.7016 1.52769 63.7908 1.4987 63.8898C1.4697 63.9887 1.46826 64.0937 1.4945 64.1934C1.52074 64.2932 1.57369 64.3839 1.64764 64.4557C1.72159 64.5276 1.81374 64.578 1.91417 64.6014H1.9085Z" fill="#D61016"/>
<path d="M18.9293 3.69038C19.1448 3.59967 19.0994 3.58266 18.7933 3.62802C18.6147 3.63403 18.4367 3.65108 18.2603 3.67905L17.1944 3.79244C16.5707 3.85481 15.9413 3.90017 15.3177 3.93986C14.0136 4.01924 12.7152 4.08727 11.4055 4.06459C10.0957 4.04192 8.80868 3.98522 7.51029 3.84347C6.2119 3.70173 4.87383 3.27649 3.54142 3.18577C2.11829 3.10639 1.43224 5.35165 2.78733 5.96399C4.14242 6.57633 5.86037 6.73508 7.37422 6.91085C8.8456 7.08186 10.3273 7.14817 11.808 7.1093C13.2884 7.0705 14.7652 6.94365 16.2305 6.72941C16.9846 6.61602 17.733 6.48561 18.4984 6.3382C19.1051 6.21913 19.9896 6.08306 20.3922 5.5671C20.5914 5.35876 20.7099 5.0863 20.7265 4.79852C20.7432 4.51074 20.6568 4.22645 20.4829 3.99655C20.3085 3.7648 20.0547 3.60546 19.7702 3.54898C19.4857 3.49249 19.1904 3.54283 18.9407 3.69038H18.9293Z" fill="black"/>
<path d="M19.8308 8.07325C18.3227 7.78976 16.7124 8.07325 15.1929 8.1583C13.5827 8.23768 11.9781 8.33974 10.3679 8.36242C8.75766 8.3851 7.23814 8.39076 5.67327 8.33407C4.38622 8.28304 2.01056 8.01656 2.08994 9.99533C2.09468 10.2645 2.18522 10.5252 2.34839 10.7393C2.51156 10.9535 2.73883 11.11 2.99711 11.186C3.47151 11.2455 3.95151 11.2455 4.42591 11.186C5.16299 11.186 5.90007 11.2484 6.63715 11.2654C8.15666 11.2937 9.67618 11.2654 11.173 11.1973C12.6698 11.1293 14.178 10.9989 15.6692 10.7948C17.1603 10.5907 18.7196 10.4659 20.0293 9.7742C20.1833 9.67898 20.3065 9.54137 20.3843 9.37787C20.462 9.21436 20.4909 9.03191 20.4676 8.85238C20.4442 8.67284 20.3696 8.50385 20.2527 8.36566C20.1357 8.22747 19.9814 8.12594 19.8082 8.07325H19.8308Z" fill="black"/>
<path d="M20.0066 13.0457C20.157 13.0457 20.3012 12.986 20.4075 12.8796C20.5139 12.7733 20.5736 12.6291 20.5736 12.4787C20.5736 12.3284 20.5139 12.1841 20.4075 12.0778C20.3012 11.9715 20.157 11.9117 20.0066 11.9117C19.8562 11.9117 19.712 11.9715 19.6057 12.0778C19.4994 12.1841 19.4396 12.3284 19.4396 12.4787C19.4396 12.6291 19.4994 12.7733 19.6057 12.8796C19.712 12.986 19.8562 13.0457 20.0066 13.0457Z" fill="black"/>
<path d="M20.3185 12.025C19.0257 11.373 17.183 11.8153 15.7826 11.9627C14.1894 12.1271 12.5905 12.2859 10.9973 12.4219C9.40403 12.558 7.8845 12.6714 6.3253 12.7735C5.50317 12.8245 4.67539 12.8699 3.85326 12.9039C2.9064 12.9436 2.05592 12.8642 1.2905 13.5105C0.525068 14.1569 0.94464 15.0754 1.55131 15.529C2.15798 15.9826 3.18422 15.8408 3.98933 15.8012C4.79445 15.7615 5.63925 15.7104 6.46705 15.6537C8.07161 15.546 9.6705 15.3873 11.2694 15.1888C12.8683 14.9904 14.4162 14.7579 15.9867 14.4687C16.7918 14.3213 17.6026 14.1682 18.3964 13.9471C19.1496 13.8125 19.8504 13.4709 20.4205 12.9606C20.484 12.8958 20.5321 12.8174 20.561 12.7314C20.5899 12.6454 20.599 12.554 20.5875 12.464C20.5761 12.374 20.5444 12.2877 20.4948 12.2117C20.4453 12.1357 20.3792 12.0719 20.3015 12.025H20.3185Z" fill="black"/>
<path d="M19.5814 16.4646C18.1864 16.3578 16.7842 16.3958 15.397 16.578C14.093 16.6744 12.7946 16.8332 11.4905 16.9692C8.82004 17.2471 6.1779 17.7573 3.4904 17.5362C1.86315 17.3888 1.47193 20.1217 3.09918 20.4108C5.87172 20.8984 8.84838 20.2634 11.6039 19.8835C12.993 19.6908 14.3878 19.515 15.7656 19.3165C17.1532 19.1543 18.5209 18.8523 19.8479 18.415C20.0676 18.346 20.2558 18.2014 20.3791 18.0069C20.5024 17.8124 20.553 17.5806 20.5217 17.3524C20.4905 17.1242 20.3795 16.9145 20.2084 16.7603C20.0373 16.6061 19.8172 16.5174 19.587 16.51L19.5814 16.4646Z" fill="black"/>
<path d="M19.9159 21.0741C17.234 20.6886 14.4899 21.1421 11.7967 21.3406C10.4473 21.437 9.09784 21.5334 7.74842 21.6184C6.399 21.7035 4.94186 21.6921 3.55275 21.8395C3.32136 21.8413 3.09394 21.8999 2.89051 22.0102C2.68708 22.1204 2.51387 22.279 2.38614 22.472C2.25841 22.6649 2.18007 22.8863 2.15801 23.1167C2.13595 23.347 2.17084 23.5793 2.25963 23.793C2.34842 24.0067 2.48838 24.1953 2.66718 24.3421C2.84598 24.489 3.05814 24.5897 3.285 24.6354C3.51186 24.681 3.74646 24.6701 3.96814 24.6038C4.18983 24.5374 4.39181 24.4176 4.5563 24.2549C4.74908 24.0281 4.4089 24.2549 4.82846 24.0961C4.9346 24.0646 5.03084 24.0063 5.10799 23.9269C5.18514 23.8475 5.24061 23.7496 5.26907 23.6427C5.29752 23.5357 5.29803 23.4231 5.27052 23.3159C5.24301 23.2087 5.1884 23.1103 5.11195 23.0302C5.06093 22.8714 4.99856 22.8204 4.91918 22.8771L3.55275 24.6688C4.95357 24.6773 6.35392 24.6149 7.74842 24.4817C9.15076 24.391 10.5474 24.27 11.9384 24.1188C14.677 23.8126 17.5686 23.5972 20.0916 22.4179C20.2153 22.3434 20.3146 22.2344 20.3773 22.1044C20.4401 21.9744 20.4636 21.8288 20.4449 21.6857C20.4263 21.5425 20.3663 21.4079 20.2724 21.2983C20.1784 21.1886 20.0545 21.1088 19.9159 21.0684V21.0741Z" fill="black"/>
<path d="M18.4134 25.0884C17.4552 25.1451 16.4913 25.0373 15.5331 25.0884C14.5749 25.1394 13.509 25.2811 12.5168 25.4342C10.5663 25.7347 8.63292 26.143 6.72218 26.5682C5.50317 26.8574 6.01912 28.7284 7.23247 28.4392C9.12052 27.997 11.0142 27.6285 12.9023 27.3053C13.8492 27.1408 14.8017 26.9764 15.7372 26.7893C16.6727 26.6022 17.5912 26.2847 18.5324 26.16C19.1561 26.0749 19.0087 25.026 18.385 25.06L18.4134 25.0884Z" fill="black"/>
<path d="M19.2865 0.906583C18.5325 3.33327 18.7989 6.09448 18.7819 8.61189C18.7649 11.1293 18.7819 13.7431 18.7819 16.3115C18.7819 18.4887 19.0371 20.802 18.6402 22.9509C18.4988 23.9741 18.1095 24.9473 17.5062 25.7858C16.8526 26.552 16.1167 27.2441 15.312 27.8496C11.9173 30.5583 8.9806 33.7956 6.61447 37.4373C4.20383 41.2863 2.59724 45.5833 1.8915 50.0697C1.46486 52.7566 1.21862 55.4691 1.15442 58.1889C1.1204 59.4816 1.11473 60.7743 1.1204 62.0671C1.1204 62.7531 1.1204 63.4448 1.14875 64.1309C1.07919 64.8788 1.14253 65.6332 1.33586 66.3591C1.39837 66.5766 1.50619 66.7785 1.65224 66.9514C1.79829 67.1243 1.97927 67.2643 2.18329 67.3623C2.3873 67.4603 2.60974 67.514 2.836 67.52C3.06225 67.5259 3.2872 67.4839 3.49606 67.3967C4.28417 67.0678 4.86249 65.8999 4.26149 65.1288C4.12865 64.8799 3.92845 64.6735 3.68379 64.5331C3.43913 64.3928 3.15991 64.3241 2.87805 64.335L4.42592 66.3648C4.57345 65.7623 4.61375 65.1386 4.54498 64.5221L4.51097 62.5887C4.51097 61.4264 4.51097 60.264 4.51097 59.1017C4.53147 56.7416 4.68859 54.3847 4.98155 52.0428C5.50299 47.7101 6.91198 43.5314 9.12054 39.7676C11.3521 36.1917 14.183 33.027 17.4892 30.4124C19.3149 28.9212 20.8911 27.328 21.6112 25.0204C22.2859 22.8658 22.1782 20.5355 22.1782 18.3073C22.1385 15.41 22.1044 12.5184 22.0081 9.62678L21.872 5.41977C21.9029 3.90703 21.7119 2.39792 21.305 0.940601C21.2379 0.726235 21.104 0.538908 20.923 0.405905C20.742 0.272902 20.5232 0.201172 20.2986 0.201172C20.074 0.201172 19.8552 0.272902 19.6742 0.405905C19.4932 0.538908 19.3593 0.726235 19.2922 0.940601L19.2865 0.906583Z" fill="#D61016"/>
<path d="M0.757523 0.861159C0.4406 2.17467 0.267594 3.51878 0.241566 4.86973C0.13384 6.23616 0.116831 7.60259 0.0828119 8.97469C0.0317834 11.2143 -0.0475953 13.4539 0.0374522 15.6878C0.201877 20.0252 0.995659 24.4533 3.74553 27.9459C6.42736 31.3478 10.7308 32.9071 13.4126 36.3089C16.1965 39.8469 17.5799 44.5642 18.5891 48.879C19.8474 54.3152 20.2397 59.916 19.7515 65.4746C19.7515 65.9257 19.9307 66.3583 20.2497 66.6773C20.5686 66.9963 21.0013 67.1755 21.4524 67.1755C21.9035 67.1755 22.3362 66.9963 22.6552 66.6773C22.9742 66.3583 23.1534 65.9257 23.1534 65.4746C23.5711 60.4489 23.3136 55.3898 22.3879 50.4325C21.5205 45.7606 20.12 40.9355 17.784 36.7795C16.6677 34.7734 15.1871 32.9929 13.4183 31.5293C11.7627 30.1742 9.91431 29.0799 8.27006 27.7135C6.75117 26.4894 5.55417 24.9128 4.7831 23.1209C4.06738 21.2807 3.63718 19.3419 3.5074 17.3717C3.34959 14.9067 3.31931 12.4351 3.41668 9.96691C3.45069 8.5041 3.5244 7.03561 3.47904 5.57846C3.43369 4.02493 3.47904 2.36933 3.10483 0.861159C3.02627 0.611424 2.87011 0.393258 2.65903 0.238383C2.44796 0.0835077 2.19298 0 1.93118 0C1.66938 0 1.4144 0.0835077 1.20333 0.238383C0.99225 0.393258 0.836082 0.611424 0.757523 0.861159Z" fill="black"/>
<path d="M56.509 5.00014C55.1762 4.80741 53.8296 4.72774 52.4834 4.762H50.4252C50.073 4.74068 49.7196 4.77125 49.3763 4.85272C49.1018 4.93359 48.8679 5.11529 48.7218 5.36136C48.5756 5.60743 48.5279 5.89968 48.5882 6.17946C48.8037 6.99025 49.7222 7.00159 50.4252 6.95623L52.4834 6.82015C53.8354 6.77996 55.1819 6.62825 56.509 6.36657C56.6526 6.3223 56.7783 6.23317 56.8675 6.11225C56.9568 5.99133 57.005 5.84499 57.005 5.69469C57.005 5.54439 56.9568 5.39805 56.8675 5.27713C56.7783 5.15621 56.6526 5.06708 56.509 5.02282V5.00014Z" fill="#D61016"/>
<path d="M58.0228 8.14123C57.2251 8.03349 56.4165 8.03349 55.6188 8.14123C54.8477 8.18658 54.0823 8.24328 53.3112 8.30565L51.0092 8.48709C50.2211 8.54945 48.7413 8.58347 48.8774 9.75146C49.0135 10.9194 50.499 10.5452 51.2644 10.3978L53.5323 9.9499C54.2864 9.79682 55.0405 9.64373 55.8003 9.47931C56.5952 9.36636 57.3714 9.14705 58.1079 8.82727C58.1704 8.79007 58.2207 8.73545 58.2527 8.67009C58.2847 8.60473 58.2969 8.53147 58.2879 8.45927C58.2788 8.38708 58.249 8.31908 58.2019 8.2636C58.1548 8.20812 58.0926 8.16756 58.0228 8.14689V8.14123Z" fill="#D61016"/>
<path d="M58.1759 11.7473C57.5296 11.3391 56.475 11.4128 55.7379 11.3901C55.0008 11.3674 54.0993 11.3901 53.2829 11.4355C52.4664 11.4808 51.6499 11.5035 50.8335 11.5716C49.9036 11.6509 48.5996 11.5716 48.2707 12.6432C48.2096 12.8709 48.2241 13.1124 48.312 13.3312C48.4 13.55 48.5566 13.7344 48.7583 13.8565C49.4727 14.2761 50.533 13.8565 51.2984 13.7544C52.0638 13.6524 52.852 13.4936 53.6287 13.3802C54.4055 13.2668 55.1879 13.1761 55.9647 13.0627C56.6507 12.9607 57.6033 12.9607 58.1759 12.5411C58.244 12.4996 58.3002 12.4413 58.3392 12.3718C58.3782 12.3023 58.3987 12.2239 58.3987 12.1442C58.3987 12.0645 58.3782 11.9861 58.3392 11.9166C58.3002 11.8471 58.244 11.7888 58.1759 11.7473Z" fill="#D61016"/>
<path d="M57.5182 14.7806C56.1138 14.5955 54.6931 14.5689 53.2828 14.7012C52.5911 14.7466 51.9051 14.7976 51.219 14.8656C50.412 14.886 49.6128 15.0294 48.849 15.2909C48.6403 15.4124 48.4777 15.5995 48.3864 15.823C48.2951 16.0466 48.2804 16.2941 48.3444 16.5269C48.4134 16.7548 48.5524 16.9553 48.7417 17.0998C48.931 17.2443 49.1609 17.3255 49.399 17.332C50.1389 17.2945 50.8717 17.1689 51.5819 16.9578C52.2339 16.8331 52.8859 16.714 53.538 16.6119C54.8647 16.3965 56.2141 16.2888 57.5069 15.9599C58.0738 15.8182 58.1135 14.8826 57.5069 14.7806H57.5182Z" fill="#D61016"/>
<path d="M57.1894 18.534C56.5089 18.323 55.7979 18.2272 55.0859 18.2505C54.3582 18.2194 53.6293 18.2307 52.903 18.2845C52.2056 18.3242 51.5082 18.3923 50.8108 18.483C50.1134 18.5737 48.8944 18.568 48.5429 19.3618C48.4681 19.4918 48.4234 19.637 48.4121 19.7865C48.4008 19.9361 48.4231 20.0863 48.4775 20.2261C48.5319 20.3659 48.6169 20.4917 48.7264 20.5943C48.8358 20.6969 48.9669 20.7737 49.1099 20.819C49.8356 21.0004 50.6067 20.6659 51.3154 20.5071C52.0241 20.3484 52.5855 20.2406 53.2261 20.1386C53.8668 20.0365 54.4622 19.9741 55.0859 19.9004C55.7955 19.8771 56.5006 19.7782 57.1894 19.6056C57.3008 19.5671 57.3974 19.4947 57.4658 19.3987C57.5342 19.3027 57.5709 19.1877 57.5709 19.0698C57.5709 18.9519 57.5342 18.837 57.4658 18.7409C57.3974 18.6449 57.3008 18.5726 57.1894 18.534Z" fill="#D61016"/>
<path d="M56.3105 22.9338C55.8569 22.4802 55.0915 22.4689 54.4905 22.4008C53.7611 22.3338 53.0282 22.3149 52.2963 22.3441C50.7515 22.383 49.213 22.5556 47.6981 22.8601C47.557 22.9006 47.4271 22.9727 47.3181 23.071C47.2092 23.1693 47.1241 23.2912 47.0694 23.4274C47.0147 23.5636 46.9919 23.7104 47.0025 23.8568C47.0132 24.0031 47.0572 24.1451 47.1311 24.2719L47.1878 24.3513C47.2698 24.4825 47.3839 24.5907 47.5193 24.6657C47.6547 24.7407 47.8069 24.78 47.9617 24.78C48.1165 24.78 48.2687 24.7407 48.4041 24.6657C48.5395 24.5907 48.6536 24.4825 48.7356 24.3513L48.7923 24.2719L48.2254 24.7141C49.5294 24.3796 50.8675 24.1075 52.1942 23.8977C52.8576 23.7956 53.5267 23.7446 54.1957 23.6539C54.7287 23.5802 55.4431 23.3477 55.9647 23.5235C56.0352 23.5356 56.1078 23.5263 56.173 23.4967C56.2381 23.4671 56.2929 23.4186 56.3302 23.3575C56.3675 23.2964 56.3855 23.2255 56.382 23.154C56.3785 23.0825 56.3536 23.0137 56.3105 22.9565V22.9338Z" fill="#D61016"/>
<path d="M54.0199 26.4718C53.6514 26.0636 52.8349 26.0409 52.319 25.9672C51.7176 25.8831 51.1117 25.8358 50.5046 25.8254C49.9377 25.8254 49.3423 25.8254 48.7583 25.8254C48.4465 25.8254 48.1346 25.8595 47.8228 25.8821C47.4594 25.8827 47.0981 25.9381 46.7512 26.0466C46.5093 26.1104 46.299 26.2604 46.16 26.4684C46.0209 26.6764 45.9626 26.928 45.996 27.176C46.0295 27.4239 46.1523 27.6511 46.3415 27.8148C46.5307 27.9786 46.7732 28.0675 47.0234 28.065C47.6539 28.0229 48.2788 27.9185 48.8887 27.7532C49.4557 27.6511 50.0227 27.5774 50.5897 27.5207L52.3417 27.362C52.9086 27.3166 53.6004 27.362 54.0426 27.0161C54.116 26.94 54.1571 26.8384 54.1571 26.7326C54.1571 26.6268 54.116 26.5252 54.0426 26.4491L54.0199 26.4718Z" fill="#D61016"/>
<path d="M52.5401 29.6072C52.37 29.5561 52.2396 29.4427 52.0639 29.386C51.8881 29.3293 51.8201 29.3123 51.6953 29.284C51.3842 29.2092 51.0676 29.1599 50.7484 29.1366C50.141 29.061 49.5292 29.025 48.9171 29.0288C48.3104 29.0288 47.7038 29.0629 47.1028 29.1196C46.5017 29.1763 45.4982 29.1196 45.0106 29.6582L46.5188 30.8262L46.5528 30.7411C46.6198 30.6223 46.6591 30.4899 46.6678 30.3538C46.6766 30.2177 46.6545 30.0814 46.6033 29.955C46.5521 29.8286 46.473 29.7154 46.372 29.6237C46.271 29.5321 46.1506 29.4644 46.0198 29.4257H45.9404C45.7013 29.3777 45.4529 29.4221 45.2452 29.55C45.0375 29.6779 44.886 29.8798 44.8213 30.1149C44.7566 30.3501 44.7834 30.6011 44.8964 30.8172C45.0094 31.0334 45.2001 31.1987 45.4301 31.2798C45.818 31.3785 46.2272 31.3507 46.5981 31.2004C46.8476 31.138 47.1027 31.0813 47.3579 31.0303C47.8965 30.9226 48.4408 30.8319 48.9851 30.7695C49.5294 30.7071 50.1191 30.6447 50.6861 30.5994C50.9866 30.5994 51.2814 30.5654 51.5819 30.5257L51.9505 30.469L52.1943 30.435C52.2769 30.3951 52.3621 30.361 52.4494 30.3329C52.5335 30.3265 52.613 30.2914 52.6743 30.2335C52.7357 30.1756 52.7754 30.0983 52.7867 30.0147C52.7979 29.9311 52.7802 29.8461 52.7363 29.774C52.6925 29.7019 52.6252 29.647 52.5458 29.6185L52.5401 29.6072Z" fill="#D61016"/>
<path d="M49.6598 32.8391C48.3666 32.6047 47.0447 32.5741 45.742 32.7484C45.1013 32.7937 44.4663 32.8674 43.8312 32.9468C43.0751 32.9821 42.329 33.1352 41.62 33.4004C40.6731 33.8597 41.1381 35.3962 42.1473 35.3622C42.8112 35.2701 43.4632 35.1066 44.092 34.8746C44.7157 34.7101 45.3394 34.5627 45.9744 34.438C47.1934 34.1828 48.4692 34.0978 49.6598 33.7349C49.7546 33.7044 49.8372 33.6446 49.8959 33.5641C49.9545 33.4836 49.9861 33.3866 49.9861 33.287C49.9861 33.1874 49.9545 33.0904 49.8959 33.0099C49.8372 32.9294 49.7546 32.8696 49.6598 32.8391Z" fill="#D61016"/>
<path d="M56.6224 3.09507C56.2709 4.3311 56.4069 5.58413 56.4409 6.85984C56.475 8.13555 56.509 9.37158 56.5203 10.6303C56.5487 13.0796 56.6224 15.5404 56.56 18.0011C56.5795 20.0402 56.1518 22.0587 55.307 23.9147C54.4329 25.5928 53.3467 27.1515 52.0752 28.5526C49.3763 31.6597 46.4847 34.523 44.2621 38.0156C42.0304 41.535 40.3533 45.3769 39.2897 49.4063C38.0691 53.9985 37.6755 58.7713 38.1274 63.5015C38.1347 63.9503 38.3162 64.3787 38.6337 64.6961C38.9511 65.0136 39.3795 65.1951 39.8283 65.2024C40.2794 65.2024 40.7121 65.0232 41.0311 64.7042C41.3501 64.3852 41.5293 63.9526 41.5293 63.5015C40.7208 55.3592 42.5964 47.1759 46.8703 40.1985C49.0021 36.7512 51.8314 33.9616 54.4735 30.934C55.8162 29.4526 56.9931 27.8289 57.9831 26.0919C59.0569 24.0871 59.6982 21.8794 59.8655 19.6113C60.0621 16.8528 60.0431 14.0832 59.8088 11.3277C59.7068 9.92722 59.599 8.53244 59.4403 7.13766C59.2815 5.74288 59.2135 4.17801 58.5388 2.8456C58.4324 2.67162 58.278 2.53219 58.094 2.44419C57.9101 2.3562 57.7046 2.32342 57.5024 2.34982C57.3002 2.37622 57.11 2.46066 56.9548 2.59293C56.7996 2.7252 56.6861 2.89962 56.628 3.09507H56.6224Z" fill="black"/>
<path d="M45.3111 37.2274C45.1849 37.1847 45.0618 37.1336 44.9425 37.0743C44.792 37.0246 44.6358 36.9941 44.4776 36.9836C44.2395 36.9496 44.007 36.9213 43.7632 36.9099C43.2302 36.9099 42.6973 36.9099 42.1643 36.9099C41.6313 36.9099 41.1381 36.9666 40.6278 37.012C40.0318 37.0206 39.4394 37.1044 38.8645 37.2614C38.6102 37.3393 38.3914 37.5041 38.2464 37.7269C38.1013 37.9497 38.0391 38.2164 38.0707 38.4805C38.1038 38.7461 38.2326 38.9905 38.433 39.1679C38.6334 39.3453 38.8916 39.4436 39.1593 39.4443C39.7344 39.3852 40.3035 39.2771 40.8602 39.1212C41.3592 39.0078 41.8638 38.9057 42.3684 38.8093L43.8709 38.5372C44.1034 38.4918 44.3302 38.4408 44.557 38.3841C44.6703 38.3587 44.782 38.3265 44.8915 38.2877C45.0389 38.231 45.1693 38.1176 45.3167 38.0722C45.4083 38.044 45.4883 37.9873 45.5452 37.9102C45.6021 37.8332 45.6328 37.7399 45.6328 37.6442C45.6328 37.5484 45.6021 37.4551 45.5452 37.3781C45.4883 37.3011 45.4083 37.2443 45.3167 37.2161L45.3111 37.2274Z" fill="black"/>
<path d="M42.6576 41.1C42.617 41.1525 42.5827 41.2096 42.5555 41.2701L43.7292 40.9583C43.1867 40.7407 42.6119 40.6143 42.0282 40.5841C41.4953 40.5217 40.9623 40.5047 40.4293 40.482C39.8964 40.4593 39.4088 40.448 38.8928 40.4366C38.2887 40.369 37.6776 40.4016 37.0841 40.533L38.3032 40.8562C38.1499 40.6952 37.9528 40.5829 37.7362 40.533C37.4152 40.4472 37.0734 40.4905 36.7841 40.6538C36.4947 40.817 36.2808 41.0871 36.1883 41.4062C36.1072 41.7277 36.1533 42.0681 36.317 42.3565C36.4807 42.6449 36.7494 42.8589 37.0671 42.954C37.6478 43.0419 38.2384 43.0419 38.8191 42.954C39.3294 42.9144 39.8397 42.886 40.3556 42.8577C40.8716 42.8293 41.3819 42.818 41.8922 42.7726C42.4484 42.7729 43.002 42.6947 43.5364 42.5401C43.6611 42.5014 43.7756 42.4355 43.8718 42.3473C43.968 42.259 44.0434 42.1506 44.0927 42.0297C44.1421 41.9088 44.164 41.7786 44.157 41.6482C44.1501 41.5179 44.1143 41.3907 44.0524 41.2758C44.0309 41.2159 44.0024 41.1588 43.9673 41.1057C43.8985 40.9955 43.8028 40.9047 43.6893 40.8417C43.5757 40.7788 43.448 40.7457 43.3181 40.7457C43.1882 40.7457 43.0605 40.7788 42.947 40.8417C42.8334 40.9047 42.7377 40.9955 42.6689 41.1057L42.6576 41.1Z" fill="black"/>
<path d="M41.8014 45.5337C41.4669 45.0574 40.8262 45.0348 40.2933 44.9667C39.7603 44.8987 39.2444 44.9667 38.7227 44.9384C38.2011 44.91 37.6738 44.9384 37.1465 44.9384C36.5521 44.8863 35.9532 44.9284 35.3719 45.0631L36.8233 45.8852V45.8285C36.7541 45.5997 36.6142 45.3986 36.4238 45.254C36.2334 45.1094 36.0021 45.0287 35.7631 45.0234H35.7064C35.4244 45.0295 35.1539 45.136 34.9433 45.3237C34.7328 45.5113 34.5962 45.768 34.5579 46.0474C34.5196 46.3268 34.5823 46.6107 34.7346 46.8481C34.8869 47.0855 35.1189 47.2607 35.3889 47.3424C36.0477 47.4078 36.7128 47.3618 37.3563 47.2063L38.8985 46.9625C39.4088 46.8718 39.9361 46.8208 40.435 46.696C40.934 46.5713 41.5973 46.4125 41.8185 45.9589C41.8589 45.8912 41.8803 45.8138 41.8803 45.735C41.8803 45.6561 41.8589 45.5787 41.8185 45.511L41.8014 45.5337Z" fill="black"/>
<path d="M39.5618 49.6501C39.0935 49.5643 38.62 49.5094 38.1444 49.4857L36.829 49.4233C36.3924 49.4233 35.9558 49.3836 35.5193 49.3496C35.0083 49.248 34.4823 49.248 33.9714 49.3496C33.7711 49.4132 33.5924 49.5311 33.4553 49.6903C33.3181 49.8495 33.2279 50.0437 33.1946 50.2511C33.162 50.4626 33.1938 50.6789 33.2858 50.8721C33.3778 51.0652 33.5258 51.2262 33.7106 51.3341C33.9305 51.4417 34.1693 51.5053 34.4136 51.5212C34.5384 51.5212 34.6631 51.5212 34.7822 51.5212C34.992 51.5212 35.2018 51.5212 35.4115 51.4815C35.8708 51.4531 36.3244 51.4078 36.778 51.3624C37.2316 51.3171 37.7758 51.2434 38.2691 51.1526C38.4732 51.1186 38.6774 51.0903 38.8815 51.0449C39.1139 50.9826 39.3413 50.903 39.5618 50.8068C39.6857 50.7697 39.7951 50.6954 39.8753 50.594C39.9554 50.4925 40.0024 50.3689 40.0098 50.2398C40.0049 50.11 39.9589 49.9851 39.8783 49.8832C39.7978 49.7813 39.687 49.7076 39.5618 49.6728V49.6501Z" fill="black"/>
<path d="M39.182 53.8061L39.1309 53.8855L39.6979 53.6587C38.7042 53.3767 37.6747 53.241 36.6419 53.2561C36.1146 53.2278 35.593 53.1994 35.0657 53.1824C34.5413 53.1418 34.015 53.1323 33.4895 53.1541C33.2345 53.1586 32.988 53.2464 32.7877 53.4041C32.5873 53.5618 32.444 53.7807 32.3798 54.0275C32.3155 54.2743 32.3338 54.5353 32.4318 54.7707C32.5298 55.0061 32.7021 55.203 32.9225 55.3313L32.9792 55.3596C33.1533 55.4539 33.3482 55.5033 33.5462 55.5033C33.7442 55.5033 33.939 55.4539 34.1131 55.3596C34.2854 55.2602 34.4284 55.1172 34.5279 54.9451C34.6274 54.7729 34.6799 54.5776 34.6801 54.3787V54.322L33.5121 55.49C34.1588 55.5089 34.8061 55.4938 35.4512 55.4447C36.0806 55.4447 36.7042 55.3766 37.3336 55.3369C37.9989 55.3383 38.6618 55.2564 39.3067 55.0931C39.4797 55.0585 39.6414 54.9813 39.7771 54.8685C39.9127 54.7556 40.018 54.6106 40.0835 54.4468C40.1269 54.301 40.1222 54.145 40.0701 54.0021C40.018 53.8591 39.9213 53.7368 39.7943 53.653C39.6977 53.6034 39.5861 53.5917 39.4812 53.62C39.3764 53.6483 39.2859 53.7146 39.2273 53.8061H39.182Z" fill="black"/>
<path d="M39.2217 57.2703C38.6412 57.0125 38.0073 56.8978 37.3733 56.9358C36.778 56.9358 36.1826 56.9358 35.5873 56.9075C34.992 56.8791 34.3966 56.9075 33.7956 56.9075C33.0772 56.818 32.3477 56.9036 31.6694 57.1569C31.52 57.2459 31.3945 57.3702 31.3041 57.5189C31.2137 57.6675 31.161 57.836 31.1507 58.0097C31.1404 58.1834 31.1728 58.3569 31.245 58.5152C31.3172 58.6735 31.4271 58.8117 31.565 58.9178C31.7029 59.0239 31.8647 59.0945 32.0363 59.1237C32.2078 59.1528 32.3838 59.1395 32.5491 59.085C32.7143 59.0304 32.8636 58.9362 32.9841 58.8107C33.1045 58.6851 33.1924 58.532 33.24 58.3646V58.4326C33.3027 58.324 33.3357 58.2008 33.3357 58.0754C33.3357 57.95 33.3027 57.8269 33.24 57.7183L33.0642 57.5085L33.2683 57.86C33.2715 57.8393 33.2715 57.8183 33.2683 57.7976L31.9246 59.1414C32.4916 59.3795 33.3194 59.1414 33.9317 59.096C34.544 59.0507 35.0657 58.977 35.6327 58.9032L37.3336 58.6878C37.9816 58.6675 38.6154 58.4926 39.182 58.1775C39.257 58.1313 39.319 58.0667 39.362 57.9898C39.4049 57.9129 39.4275 57.8262 39.4275 57.7381C39.4275 57.65 39.4049 57.5633 39.362 57.4864C39.319 57.4095 39.257 57.3449 39.182 57.2987L39.2217 57.2703Z" fill="black"/>
<path d="M39.3067 60.9331C38.7324 60.5997 38.0686 60.4531 37.4073 60.5135C36.778 60.5135 36.1543 60.5135 35.5249 60.5135C34.8956 60.5135 34.3116 60.5532 33.7049 60.5816C33.3987 60.5816 33.0982 60.6156 32.7977 60.6496C32.5327 60.6426 32.2701 60.7017 32.0335 60.8214C31.797 60.9412 31.5939 61.1179 31.4427 61.3356C31.3672 61.4637 31.32 61.6064 31.3042 61.7542C31.2884 61.902 31.3043 62.0515 31.351 62.1926C31.3977 62.3338 31.4739 62.4633 31.5747 62.5726C31.6755 62.6818 31.7985 62.7683 31.9354 62.8261C32.0723 62.884 32.22 62.9119 32.3686 62.9081C32.5172 62.9042 32.6633 62.8686 32.797 62.8037C32.9307 62.7388 33.049 62.6461 33.144 62.5318C33.239 62.4174 33.3084 62.2841 33.3477 62.1408L33.1209 62.3676L33.291 62.2598C33.3673 62.214 33.4305 62.1491 33.4743 62.0716C33.5182 61.9941 33.5412 61.9066 33.5412 61.8176C33.5412 61.7285 33.5182 61.641 33.4743 61.5635C33.4305 61.486 33.3673 61.4212 33.291 61.3753C33.2603 61.3666 33.2319 61.3514 33.2074 61.3309C33.183 61.3104 33.1632 61.285 33.1493 61.2563L33.3591 61.6135V61.5624L31.6184 62.5773C31.7852 62.7305 31.9848 62.8434 32.2021 62.9073C32.4193 62.9712 32.6483 62.9844 32.8714 62.9459C33.2343 62.9062 33.5915 62.8552 33.9544 62.8041C34.5214 62.7191 34.975 62.6624 35.5986 62.5887L37.4186 62.3676C38.0196 62.2995 38.8588 62.2598 39.318 61.8006C39.4396 61.6775 39.5077 61.5115 39.5077 61.3385C39.5077 61.1655 39.4396 60.9995 39.318 60.8764L39.3067 60.9331Z" fill="black"/>
</svg>
