<svg width="65" height="59" viewBox="0 0 65 59" fill="none" xmlns="http://www.w3.org/2000/svg">
<g clip-path="url(#clip0_221_52)">
<path d="M25.2285 0.101818C23.9843 0.730204 22.7941 1.46037 21.6702 2.28485C20.5047 3.04374 19.4431 3.95126 18.5121 4.98452C16.6048 7.27693 15.4264 10.0873 15.1284 13.0544C14.8086 16.1439 15.3995 19.2595 16.8282 22.0173C18.2569 24.7752 20.4611 27.0549 23.1692 28.5758C28.7796 31.6248 35.7944 32.8909 41.3247 29.0342C43.7505 27.3777 45.6685 25.0799 46.8647 22.3971C48.0609 19.7143 48.4884 16.7519 48.0994 13.8404C47.8863 12.2826 47.4244 10.7692 46.7314 9.35786C45.964 7.96245 44.9622 6.70953 43.7697 5.65399C41.4988 3.49593 38.8228 1.8092 35.8963 0.691234C34.7538 0.254628 34.2735 2.0811 35.3942 2.51771C36.5196 2.90895 37.5649 3.50062 38.4795 4.26413C39.3933 4.97216 40.1954 5.81353 40.859 6.76005C42.0124 8.70142 42.9123 10.7825 43.5369 12.9526C44.0947 14.989 44.0757 17.1404 43.4821 19.1667C42.8884 21.193 41.7435 23.0145 40.175 24.428C38.6713 25.8682 36.7608 26.8108 34.7029 27.1277C32.3525 27.4843 29.3399 26.6475 26.9677 25.6724C24.6772 24.8146 22.6643 23.3477 21.1463 21.43C19.7824 19.5459 18.9733 17.3176 18.8104 14.9974C18.6781 12.4051 19.2569 9.82591 20.4841 7.53867C21.0799 6.29248 21.8121 5.11616 22.6671 4.03127C23.6038 2.97049 24.7226 2.08578 25.9708 1.41891C26.8003 0.945921 26.0726 -0.247461 25.2431 0.152761L25.2285 0.101818Z" fill="black"/>
<path d="M1.95018 34.5646C2.21214 34.7465 1.41897 35.9035 1.95018 35.6561C2.08621 35.5758 2.19517 35.4567 2.26308 35.3141C2.33585 35.1904 2.33585 35.0157 2.41589 34.9066C2.81279 34.4872 3.26583 34.1248 3.7621 33.8296C4.69222 33.1481 5.66438 32.526 6.6728 31.9668C8.70182 30.8497 10.8951 30.0613 13.171 29.6309C17.4497 28.8159 23.0019 29.2744 25.8543 32.971C28.7068 36.6676 29.2744 42.3143 27.6371 46.7459C26.8565 48.7654 25.5814 50.5565 23.9285 51.9551C22.2757 53.3536 20.2982 54.3148 18.1774 54.7503C15.95 55.1748 13.6457 54.895 11.5846 53.9499C10.4086 53.4225 9.27277 52.8096 8.18637 52.1161C7.19024 51.3886 6.37381 50.4427 5.79959 49.351C4.97004 47.8956 2.88889 49.1763 3.61656 50.6244C4.75766 53.054 6.51351 55.1435 8.7103 56.686C11.0733 58.1182 13.809 58.8148 16.5692 58.6871C19.3079 58.5334 21.9642 57.6947 24.2946 56.2479C26.625 54.8011 28.5549 52.7924 29.9075 50.4061C31.3655 47.7167 32.1339 44.7077 32.144 41.6486C32.1542 38.5894 31.4058 35.5754 29.9657 32.8764C28.6038 30.1927 26.3275 28.0842 23.5476 26.9313C20.8816 25.9066 18.0177 25.501 15.1721 25.7451C12.0167 25.9522 8.94236 26.833 6.15615 28.3284C4.80565 29.06 3.55166 29.9571 2.42317 30.999C1.36077 31.9959 0.0582222 33.182 -0.0363757 34.7028C-0.0366823 34.9152 0.0189898 35.1238 0.125024 35.3078C0.231059 35.4918 0.38371 35.6445 0.567597 35.7507C0.778283 35.9181 1.04337 36.0018 1.31198 35.9857C1.58059 35.9695 1.83379 35.8548 2.02295 35.6634C2.09392 35.5856 2.14716 35.4933 2.179 35.393C2.21084 35.2926 2.22052 35.1866 2.20738 35.0821C2.19423 34.9776 2.15857 34.8772 2.10286 34.7879C2.04715 34.6985 1.97271 34.6224 1.88469 34.5646H1.95018Z" fill="black"/>
<path d="M62.8931 49.9404C62.7111 49.8313 62.8931 49.089 62.6311 49.2127C62.5292 49.2637 62.522 49.482 62.4637 49.5693C62.3643 49.6794 62.2519 49.7771 62.129 49.8604C61.6706 50.2242 61.2048 50.588 60.7246 50.9082C59.6837 51.6113 58.6025 52.2528 57.4864 52.8293C55.3189 53.9323 52.9948 54.6956 50.5953 55.0924C46.0692 55.8564 40.2623 55.3834 37.1552 51.6068C34.048 47.8301 33.4222 41.9287 35.2486 37.4026C36.1563 35.2788 37.5814 33.4162 39.3941 31.985C41.2067 30.5537 43.349 29.5993 45.6253 29.2089C48.0576 28.8103 50.5535 29.1473 52.7929 30.1767C53.9741 30.6982 55.1213 31.2937 56.2275 31.9595C57.3032 32.7018 58.1924 33.6831 58.8254 34.8266C59.0048 35.094 59.2794 35.283 59.5932 35.3551C59.907 35.4272 60.2366 35.377 60.5147 35.2148C60.7929 35.0525 60.9988 34.7903 61.0905 34.4817C61.1822 34.173 61.1528 33.8409 61.0084 33.5531C59.7498 30.8118 57.6507 28.5427 55.0156 27.0746C52.3805 25.6066 49.3463 25.0161 46.353 25.3886C43.3375 25.6803 40.4498 26.7514 37.9735 28.4967C35.4971 30.242 33.5174 32.6014 32.2288 35.3432C30.8877 38.3755 30.396 41.7153 30.8061 45.0054C31.2163 48.2956 32.5129 51.4124 34.5573 54.0227C38.6687 59.1164 46.2584 59.7058 52.2544 58.4761C55.6242 57.7806 58.7888 56.319 61.5032 54.2046C62.1559 53.6912 62.7711 53.1319 63.3442 52.5309C63.9588 52.0071 64.4423 51.3467 64.7559 50.6026C64.8757 50.2853 64.8917 49.9381 64.8014 49.6111C64.7112 49.2842 64.5194 48.9943 64.2538 48.7834C64.0419 48.6008 63.7676 48.5071 63.4882 48.522C63.2089 48.537 62.9461 48.6593 62.7548 48.8635C62.6838 48.9412 62.6306 49.0335 62.5988 49.1338C62.5669 49.2342 62.5572 49.3403 62.5704 49.4447C62.5835 49.5492 62.6192 49.6496 62.6749 49.7389C62.7306 49.8283 62.805 49.9045 62.8931 49.9622V49.9404Z" fill="black"/>
<path d="M41.201 19.1307C39.9131 15.5723 36.0491 13.4766 32.4689 13.0691C30.5568 12.8725 28.6257 13.1524 26.8481 13.8837C25.0705 14.6151 23.5016 15.7752 22.2815 17.2605C21.7721 17.9154 21.3864 18.956 21.9613 19.7274C22.2602 20.1561 22.6848 20.4816 23.1765 20.6588C23.5217 20.7596 23.8879 20.764 24.2355 20.6717C24.5831 20.5793 24.8988 20.3937 25.1485 20.1349C25.9925 19.0761 27.0654 18.2223 28.2867 17.6376C29.5079 17.0528 30.8457 16.7522 32.1997 16.7585C33.472 16.807 34.7165 17.1455 35.8381 17.7481C37.0634 18.4433 38.1935 19.2946 39.1999 20.2804C40.0077 21.0081 41.6013 20.2804 41.1719 19.1307H41.201Z" fill="#E30613"/>
<path d="M15.3685 31.5011C14.3352 33.1456 14.1388 35.3214 14.1242 37.2279C14.1106 39.2063 14.4813 41.1685 15.2157 43.0056C15.8844 44.6978 16.834 46.2649 18.0246 47.6409C18.5429 48.2515 19.1152 48.8141 19.7346 49.3219C20.4984 50.0582 21.4116 50.6216 22.4124 50.9737C22.8271 51.0778 23.2644 51.0444 23.6584 50.8784C24.0525 50.7124 24.3819 50.4228 24.597 50.0533C24.8121 49.6838 24.9014 49.2544 24.8512 48.8298C24.8011 48.4052 24.6142 48.0084 24.3189 47.6991C23.7852 47.2345 23.2132 46.8158 22.6089 46.4475C22.0512 46.0081 21.5326 45.5212 21.059 44.9922C20.1487 43.9471 19.4117 42.7629 18.8759 41.4848C18.3169 40.1288 17.9661 38.696 17.8354 37.2351C17.668 35.5397 17.9809 33.866 17.879 32.1778C17.8678 31.8911 17.7653 31.6154 17.5864 31.391C17.4075 31.1667 17.1616 31.0054 16.8845 30.9306C16.6075 30.8559 16.3138 30.8716 16.0463 30.9755C15.7788 31.0795 15.5516 31.2661 15.3977 31.5083L15.3685 31.5011Z" fill="#E30613"/>
<path d="M38.2248 51.3084C41.9942 51.6723 45.065 47.7792 46.5276 44.7594C47.4441 42.9071 47.9834 40.8912 48.114 38.8288C48.153 37.7789 48.0822 36.7277 47.9029 35.6925C47.8763 35.3165 47.8277 34.9423 47.7574 34.5719C47.6701 34.2223 47.4976 33.8999 47.2553 33.6332L47.168 33.5459C46.6804 33.1238 46.7386 33.2548 47.3426 33.9315C47.337 33.7159 47.2484 33.5108 47.0952 33.3589C46.942 33.207 46.736 33.1202 46.5203 33.1165C46.3821 33.1165 45.88 33.0292 46.3093 33.1165C46.7386 33.2039 46.3093 33.0729 46.0983 33.0729C45.7972 33.0852 45.5037 33.1713 45.2436 33.3235C44.9835 33.4758 44.7647 33.6896 44.6065 33.9461C44.0681 34.8193 44.3373 35.758 44.461 36.6967C44.6604 38.5062 44.4362 40.3372 43.8061 42.0451C43.2878 43.5885 42.5075 45.0309 41.4994 46.3093C40.4331 47.5437 39.1415 48.5636 37.6936 49.3146C37.5027 49.4364 37.3556 49.6159 37.274 49.8271C37.1923 50.0383 37.1802 50.2701 37.2395 50.4887C37.2988 50.7072 37.4264 50.9011 37.6036 51.042C37.7809 51.1829 37.9985 51.2635 38.2248 51.2721V51.3084Z" fill="#E30613"/>
<path d="M33.3421 32.8983C33.4067 32.7806 33.4579 32.6562 33.4949 32.5272C33.5155 32.4312 33.5301 32.334 33.5386 32.2361V32.0979C33.576 31.9671 33.576 31.8284 33.5386 31.6976L33.4367 31.4575C33.2475 31.2149 33.2257 31.1858 33.3712 31.3702C33.2848 31.2134 33.1715 31.073 33.0365 30.9554C33.0134 30.9274 32.9865 30.9029 32.9565 30.8826C32.9565 30.8826 32.4107 30.4824 32.8328 30.7808L32.6072 30.6061C32.3088 30.4824 32.2433 30.4533 32.418 30.5334C32.5926 30.6134 32.287 30.4679 32.1779 30.4315C31.8111 30.302 31.4156 30.2768 31.0354 30.3587C30.5507 30.4818 30.1058 30.7278 29.7438 31.0728C29.3817 31.4179 29.1147 31.8504 28.9684 32.3286C28.8222 32.8069 28.8016 33.3148 28.9088 33.8033C29.0159 34.2919 29.2471 34.7445 29.58 35.1177C29.8527 35.4108 30.1994 35.625 30.5836 35.7377C30.9678 35.8504 31.3752 35.8574 31.7631 35.7581C33.2184 35.4015 34.4191 33.575 33.8661 32.1197C33.7122 31.6654 33.4293 31.2659 33.0519 30.9699C32.6745 30.674 32.2191 30.4944 31.7412 30.4533C31.341 30.4318 30.9425 30.5209 30.5895 30.7109C30.2365 30.9009 29.9427 31.1843 29.7401 31.5303C29.5701 31.8262 29.4618 32.1535 29.4217 32.4924C29.3817 32.8314 29.4108 33.1749 29.5073 33.5023C29.6326 33.8888 29.8506 34.2389 30.1423 34.5217C30.4341 34.8046 30.7907 35.0117 31.1809 35.125C31.9306 35.3308 32.7308 35.2396 33.4149 34.8703C34.0999 34.5027 34.62 33.889 34.8702 33.153C35.0005 32.7676 35.0393 32.3572 34.9835 31.9543C34.9276 31.5513 34.7787 31.1669 34.5485 30.8315C34.3183 30.4961 34.0132 30.2189 33.6573 30.0219C33.3014 29.8249 32.9045 29.7135 32.498 29.6965C32.0831 29.7008 31.6767 29.8147 31.3201 30.0269C30.9635 30.239 30.6695 30.5418 30.4678 30.9045C30.2259 31.3101 30.122 31.7834 30.1719 32.2531C30.2217 32.7228 30.4226 33.1637 30.7443 33.5096C31.0204 33.7787 31.3596 33.9743 31.7307 34.0785C32.1019 34.1827 32.4933 34.1923 32.8691 34.1063C33.3155 34.0027 33.7146 33.7533 34.0032 33.3974C34.2918 33.0416 34.4535 32.5996 34.4627 32.1415C34.4419 31.3835 34.1261 30.6636 33.5824 30.1349C33.0388 29.6062 32.3103 29.3106 31.552 29.3109C30.8308 29.3299 30.1465 29.6338 29.6488 30.1561C29.151 30.6784 28.8804 31.3766 28.896 32.0979C28.9143 32.5059 29.0335 32.9029 29.2431 33.2535C29.4526 33.604 29.7459 33.897 30.0967 34.1063C30.3922 34.2803 30.7194 34.3937 31.0593 34.4399C31.3991 34.4861 31.7447 34.4642 32.076 34.3755C32.4424 34.2678 32.7761 34.0703 33.0468 33.8009C33.3175 33.5315 33.5165 33.1987 33.6259 32.8328C33.716 32.5183 33.7425 32.189 33.7038 31.8641C33.665 31.5392 33.5619 31.2254 33.4003 30.9409C33.2008 30.6298 32.9315 30.3694 32.6138 30.1805C32.2962 29.9916 31.9389 29.8793 31.5703 29.8524C31.2017 29.8256 30.8319 29.885 30.4902 30.0259C30.1485 30.1669 29.8444 30.3854 29.6019 30.6643C29.1693 31.1649 28.9136 31.794 28.8742 32.4544C28.8328 33.1344 29.0602 33.8033 29.5073 34.3173C29.9195 34.7603 30.469 35.0515 31.0671 35.1439C31.6651 35.2363 32.2769 35.1245 32.8036 34.8266C33.3774 34.5155 33.8078 33.9937 34.0043 33.3713C34.1394 32.9418 34.1284 32.4796 33.9731 32.057C33.8177 31.6344 33.5268 31.2752 33.1457 31.0355C32.8158 30.838 32.4386 30.7337 32.0541 30.7337C31.6697 30.7337 31.2925 30.838 30.9626 31.0355C30.637 31.2468 30.3699 31.5369 30.1862 31.8789C30.0025 32.2209 29.9081 32.6038 29.9117 32.992C29.9154 33.3802 30.0169 33.7612 30.207 34.0997C30.397 34.4382 30.6695 34.7233 30.999 34.9285C31.321 35.1355 31.6906 35.2568 32.0726 35.281C32.4546 35.3052 32.8365 35.2315 33.1821 35.0668C33.4813 34.9078 33.7325 34.6716 33.9097 34.3828C34.0932 34.0807 34.2006 33.7386 34.2226 33.3858L34.179 33.7206C34.2667 33.3134 34.2517 32.8908 34.1353 32.4908C34.0381 32.201 33.8721 31.9391 33.6516 31.7275C33.4311 31.5159 33.1626 31.3608 32.8691 31.2756C32.5582 31.1909 32.2269 31.2225 31.9376 31.3645C31.6482 31.5065 31.4206 31.7491 31.2974 32.0469C31.1741 32.3188 31.1509 32.6255 31.2319 32.9129C31.3408 33.2403 31.556 33.522 31.8431 33.7133C32.3738 33.9975 32.9748 34.1238 33.575 34.0771L33.2111 34.0335C33.299 34.0415 33.385 34.0636 33.4658 34.099L33.1384 33.9607C33.186 33.9803 33.2302 34.0073 33.2694 34.0408L32.9928 33.8297L33.0729 33.9025L32.8546 33.626C32.8882 33.6677 32.9152 33.7143 32.9346 33.7642L32.7964 33.4368C32.8039 33.4874 32.8039 33.5389 32.7964 33.5896L32.7454 33.2257C32.7527 33.2789 32.7527 33.3327 32.7454 33.3858L32.7964 33.022C32.7808 33.1147 32.7539 33.2051 32.7163 33.2912L32.8619 32.9638C32.8057 33.0905 32.7349 33.2102 32.6508 33.3204L32.8691 33.0366C32.7487 33.1801 32.6147 33.3117 32.4689 33.4295L32.7454 33.2112C32.5391 33.3728 32.3113 33.5051 32.0687 33.6042L32.4034 33.4659C32.1694 33.5613 31.9253 33.6297 31.6758 33.6696L32.0541 33.6187C31.8122 33.6441 31.5684 33.6441 31.3265 33.6187L31.7049 33.6696C31.4677 33.6382 31.2355 33.5771 31.0136 33.4877L31.3556 33.626C31.1701 33.5439 30.9944 33.4414 30.8316 33.3204L31.13 33.5459C30.9922 33.4372 30.8676 33.3126 30.7589 33.1748L30.9845 33.4732C30.8621 33.3048 30.7573 33.1244 30.6716 32.9347L30.8244 33.2912C30.7393 33.078 30.6783 32.8559 30.6424 32.6291L30.7007 33.0293C30.6716 32.7876 30.6716 32.5433 30.7007 32.3016L30.6424 32.7018C30.6768 32.4975 30.733 32.2975 30.8098 32.1051L30.6497 32.469C30.7257 32.2963 30.8209 32.1328 30.9335 31.9814L30.6934 32.2943C30.7979 32.1595 30.9203 32.0395 31.0572 31.9378L30.737 32.1779C30.8523 32.0937 30.9768 32.0229 31.1082 31.9669L30.737 32.1197C30.9112 32.0458 31.095 31.9968 31.2828 31.9741L30.8608 32.0324C31.0661 32.0069 31.2739 32.0069 31.4793 32.0324L31.0572 31.9741C31.2459 32.0046 31.4311 32.0534 31.6103 32.1197L31.2246 31.9596L31.7049 32.1633L31.3119 31.996C31.5036 32.0747 31.6845 32.1774 31.8504 32.3016L31.5229 32.0542C31.6444 32.1503 31.7543 32.2601 31.8504 32.3816L31.5957 32.0542C31.691 32.1779 31.7716 32.3122 31.8358 32.4544L31.6758 32.0687C31.7382 32.2276 31.7798 32.394 31.7994 32.5636L31.7412 32.1197C31.7631 32.3034 31.7631 32.489 31.7412 32.6727L31.7994 32.2361C31.7577 32.5136 31.682 32.7849 31.5739 33.0438L31.734 32.6582C31.5221 33.12 31.2559 33.5548 30.9408 33.9534L31.1955 33.626L31.0645 33.7933C30.7667 34.1033 30.5955 34.5134 30.5842 34.9431C30.5946 35.2991 30.7168 35.6428 30.9335 35.9254C31.1743 36.2352 31.5183 36.4482 31.903 36.5257C32.2876 36.6032 32.6873 36.5399 33.0292 36.3475C33.7616 35.9707 34.378 35.402 34.8124 34.7023C35.2469 34.0025 35.4832 33.1979 35.4961 32.3744C35.4801 31.485 35.1323 30.6337 34.521 29.9876C34.0938 29.5304 33.556 29.1911 32.9594 29.0025C32.3629 28.8138 31.7278 28.7822 31.1155 28.9106C30.6109 29.0372 30.1458 29.2873 29.762 29.6383C29.538 29.8662 29.386 30.1548 29.3247 30.4683C29.2634 30.7819 29.2957 31.1065 29.4174 31.4019C29.5391 31.6973 29.745 31.9504 30.0093 32.1297C30.2737 32.3091 30.585 32.4068 30.9044 32.4108L31.3337 32.3526C31.6088 32.2773 31.8596 32.1319 32.0614 31.9305H32.0978L31.7704 32.1852C31.8615 32.1198 31.959 32.0637 32.0614 32.0178L31.6758 32.1779C31.8073 32.1271 31.9439 32.0906 32.0833 32.0687L31.6539 32.127C31.7967 32.1124 31.9405 32.1124 32.0833 32.127L31.6466 32.0687C31.8422 32.0962 32.0331 32.15 32.2142 32.2288L31.8286 32.0615C31.998 32.1348 32.1571 32.2302 32.3015 32.3453L31.9741 32.0906C32.1168 32.2042 32.2462 32.3335 32.3598 32.4762L32.1051 32.1488C32.193 32.2695 32.2685 32.3987 32.3307 32.5345L32.1633 32.1415C32.2232 32.2937 32.2647 32.4525 32.287 32.6145L32.2288 32.1779C32.2543 32.3711 32.2543 32.5668 32.2288 32.76L32.287 32.3307C32.253 32.5634 32.1895 32.7909 32.0978 33.0075L32.2652 32.6218C32.157 32.8553 32.0254 33.0772 31.8722 33.284L32.1196 32.9565C31.9597 33.1637 31.7738 33.3496 31.5666 33.5096L31.894 33.2549C31.7358 33.3774 31.5679 33.4869 31.392 33.5823L33.3567 36.1292C34.0971 35.3182 34.6291 34.3392 34.9066 33.2767C35.0478 32.6415 35.0278 31.9811 34.8484 31.3556C34.6856 30.8522 34.4149 30.3903 34.0552 30.0021C33.4347 29.3623 32.6102 28.9591 31.7241 28.8622C30.8381 28.7652 29.946 28.9805 29.2017 29.4709C28.7658 29.7779 28.401 30.1749 28.132 30.6352C27.901 31.0646 27.7529 31.5336 27.6954 32.0178C27.5668 32.9322 27.7514 33.8632 28.2193 34.6593C28.7223 35.4435 29.4819 36.0288 30.3683 36.3155C31.2548 36.6021 32.2132 36.5723 33.0802 36.2311C33.6332 36.0561 34.1363 35.7516 34.5477 35.3427C34.9591 34.9339 35.2668 34.4326 35.4451 33.8807C35.5596 33.4585 35.5309 33.0104 35.3637 32.6062C35.1966 32.202 34.9002 31.8646 34.521 31.6467C34.1829 31.4753 33.8085 31.3879 33.4295 31.392C33.233 31.392 33.0365 31.392 32.8473 31.392L33.2039 31.443C33.134 31.4313 33.0656 31.4118 33.0001 31.3847L33.3203 31.523C33.2746 31.4838 33.2331 31.4399 33.1966 31.392L32.1706 33.8297H32.2506L31.9304 33.6988C31.969 33.7137 32.0057 33.7333 32.0396 33.757L31.7412 33.575C31.795 33.6153 31.8438 33.6617 31.8868 33.7133L31.683 33.4513L31.7704 33.5896L31.6394 33.2767C31.6671 33.3575 31.689 33.4402 31.7049 33.5241L31.6612 33.1894C31.6649 33.233 31.6649 33.2768 31.6612 33.3204L31.7121 32.9783C31.6971 33.0498 31.6776 33.1203 31.6539 33.1894L31.7776 32.8837C31.7538 32.9361 31.7271 32.9872 31.6976 33.0366L31.894 32.7746C31.8591 32.8193 31.8201 32.8607 31.7776 32.8983L32.0323 32.6946L31.8722 32.7892L32.1779 32.6582C32.1141 32.6796 32.0482 32.6942 31.9814 32.7018L32.3307 32.6582C32.2629 32.6654 32.1946 32.6654 32.1269 32.6582L32.4689 32.7018L32.2215 32.6363L32.5344 32.7673C32.4392 32.7238 32.3489 32.6701 32.2652 32.6072L32.5344 32.8183C32.4701 32.7588 32.4094 32.6956 32.3525 32.6291L32.5635 32.8983C32.5081 32.8293 32.4616 32.7535 32.4253 32.6727L32.5635 32.9929C32.5283 32.9469 32.4967 32.8982 32.4689 32.8474L32.5126 33.2039C32.498 33.0928 32.498 32.9803 32.5126 32.8692L32.4616 33.2257C32.4782 33.1357 32.5051 33.0478 32.5417 32.9638L32.4034 33.284C32.4328 33.2194 32.4694 33.1583 32.5126 33.1021L32.3015 33.3713L32.4544 33.2257L32.1851 33.4368C32.2284 33.4035 32.2747 33.3743 32.3234 33.3495L31.9959 33.4877C32.0593 33.4617 32.1251 33.4422 32.1924 33.4295L31.8358 33.4804H32.0323L31.6758 33.4295C31.7588 33.4426 31.8395 33.4671 31.9159 33.5023L31.5957 33.364L31.7631 33.4659L31.4866 33.2549L31.5884 33.3567L31.3774 33.0875C31.4057 33.1262 31.4301 33.1677 31.4502 33.2112L31.3119 32.8837C31.3332 32.935 31.3479 32.9888 31.3556 33.0438L31.3119 32.6873V32.8474L31.3556 32.4835C31.3415 32.571 31.317 32.6565 31.2828 32.7382L31.4211 32.4108C31.385 32.4985 31.3386 32.5815 31.2828 32.6582L31.4938 32.3744C31.4358 32.447 31.37 32.5128 31.2974 32.5708L31.5739 32.3598C31.486 32.4243 31.3908 32.4781 31.2901 32.5199L31.6175 32.3816C31.5007 32.4299 31.3786 32.4641 31.2537 32.4835L31.6175 32.4326C31.4918 32.4471 31.3649 32.4471 31.2391 32.4326L31.603 32.4835C31.4785 32.4658 31.3565 32.434 31.2391 32.3889L31.5739 32.5272C31.4891 32.4899 31.4086 32.4435 31.3337 32.3889L31.6103 32.6072C31.5369 32.5423 31.4688 32.4718 31.4065 32.3962L31.6248 32.68C31.5693 32.5993 31.5207 32.5141 31.4793 32.4253L31.6248 32.7528C31.5905 32.663 31.5637 32.5705 31.5448 32.4762L31.5957 32.8401C31.5812 32.7095 31.5812 32.5777 31.5957 32.4472L31.5448 32.8183C31.5609 32.6856 31.5951 32.5559 31.6466 32.4326L31.5084 32.76C31.5612 32.6392 31.6271 32.5245 31.7049 32.418L31.4866 32.7018C31.5469 32.6245 31.6152 32.5538 31.6903 32.4908L31.4138 32.7091C31.4901 32.6488 31.5731 32.5975 31.6612 32.5563L31.3337 32.6946C31.4365 32.6508 31.5439 32.6191 31.6539 32.6L31.2828 32.6509C31.3747 32.64 31.4675 32.64 31.5593 32.6509L31.1955 32.6C31.2701 32.6116 31.3433 32.6311 31.4138 32.6582L31.0863 32.5199L31.1955 32.5927L30.919 32.3744C30.9772 32.4174 31.0287 32.4689 31.0718 32.5272L30.8535 32.2434C30.8952 32.3032 30.9318 32.3665 30.9626 32.4326L30.8244 32.0979C30.8587 32.1821 30.8831 32.27 30.8971 32.3598L30.8462 31.9887C30.8607 32.0925 30.8607 32.1978 30.8462 32.3016L30.8971 31.9232C30.8855 31.9978 30.866 32.071 30.8389 32.1415L30.9845 31.8068C30.9552 31.8737 30.9186 31.9372 30.8753 31.996L31.1009 31.7122C31.053 31.7686 30.9994 31.8198 30.9408 31.865L31.2319 31.6467L31.0572 31.7413L31.4065 31.5958C31.3288 31.6252 31.2483 31.6472 31.1664 31.6612L31.552 31.6103C31.4553 31.6213 31.3577 31.6213 31.261 31.6103L31.6394 31.6612C31.5422 31.6448 31.447 31.6179 31.3556 31.5812L31.7049 31.7267C31.615 31.6846 31.5296 31.6334 31.4502 31.5739L31.7412 31.7995C31.6656 31.7347 31.595 31.6642 31.5302 31.5885L31.7631 31.8868C31.7149 31.8182 31.6734 31.7451 31.6394 31.6685L31.7849 32.0178C31.7637 31.951 31.7466 31.883 31.734 31.8141L31.7849 32.207C31.7703 32.1008 31.7703 31.9931 31.7849 31.8868L31.734 32.2725C31.7475 32.1668 31.7769 32.0638 31.8213 31.9669L31.6758 32.3089C31.7218 32.2112 31.7779 32.1185 31.8431 32.0324L31.6103 32.3307C31.6785 32.2443 31.7567 32.1661 31.8431 32.0979L31.552 32.3234C31.6261 32.2715 31.7039 32.2253 31.7849 32.1852L31.4356 32.3307C31.5387 32.2895 31.6461 32.2602 31.7558 32.2434L31.3629 32.2943C31.4766 32.2834 31.5911 32.2834 31.7049 32.2943L31.3192 32.2434C31.4308 32.2623 31.5404 32.2915 31.6466 32.3307L31.2974 32.1852C31.4201 32.2416 31.5371 32.3099 31.6466 32.3889L31.3483 32.1633C31.4569 32.2428 31.5526 32.3385 31.6321 32.4472L31.4065 32.1488C31.472 32.2425 31.5281 32.3424 31.5739 32.4472L31.4283 32.0979C31.4627 32.1852 31.4894 32.2752 31.5084 32.3671L31.4502 31.9741C31.4647 32.0657 31.4647 32.1591 31.4502 32.2507L31.5084 31.865C31.4971 31.9097 31.4825 31.9535 31.4647 31.996L31.6175 31.6394L31.552 31.7559L31.7776 31.4575C31.7542 31.4918 31.7246 31.5214 31.6903 31.5448L31.9887 31.3192C31.9434 31.3514 31.8945 31.3783 31.8431 31.3993L32.1997 31.2538C32.1458 31.2749 32.0896 31.2896 32.0323 31.2974L32.4253 31.2465H32.207L32.5999 31.2974C32.5255 31.2848 32.4524 31.2653 32.3816 31.2392L32.7382 31.392C32.6857 31.3657 32.6347 31.3365 32.5854 31.3047L32.8837 31.5376C32.8389 31.5 32.7975 31.4586 32.76 31.4138L32.9928 31.7122L32.9274 31.603L33.0729 31.9523C33.0729 31.9014 33.0729 31.8577 33.0292 31.7995L33.0874 32.1997C33.0765 32.1298 33.0765 32.0586 33.0874 31.9887L33.0365 32.3816C33.0501 32.3122 33.0696 32.244 33.0947 32.1779L32.9419 32.5345C32.9766 32.4528 33.0232 32.3768 33.0802 32.3089L32.8473 32.6072C32.8926 32.551 32.9439 32.4997 33.0001 32.4544L32.7018 32.6873C32.7581 32.6441 32.8191 32.6075 32.8837 32.5781L32.5271 32.7309C32.5941 32.701 32.6653 32.6814 32.7382 32.6727L32.3379 32.7237H32.5635L32.1706 32.6727L32.3889 32.7309L32.0323 32.5854C32.1202 32.624 32.2032 32.6729 32.2797 32.7309L31.9741 32.4981C32.0508 32.5566 32.1194 32.6251 32.1779 32.7018L31.945 32.4035C32.0047 32.4815 32.0536 32.5671 32.0905 32.6582L31.9377 32.2943C31.9755 32.3849 32 32.4805 32.0105 32.5781L31.9595 32.1779C31.9668 32.2821 31.9668 32.3866 31.9595 32.4908L32.0105 32.0906C31.9877 32.2147 31.9536 32.3365 31.9086 32.4544L32.0541 32.0906C32.0026 32.206 31.9392 32.3157 31.865 32.418L32.0978 32.1124C32.0193 32.2127 31.9289 32.3031 31.8286 32.3816L32.1342 32.1488C32.0215 32.233 31.8994 32.3038 31.7704 32.3598L32.1342 32.2143C32.0049 32.2627 31.8707 32.2968 31.734 32.3162L32.1342 32.2652C32.0179 32.2725 31.9012 32.2725 31.7849 32.2652L32.1851 32.3162C32.0702 32.3017 31.9577 32.2724 31.8504 32.2288L32.207 32.3816C32.1229 32.3402 32.0425 32.2915 31.9668 32.2361L32.2725 32.469C32.2173 32.4276 32.1683 32.3786 32.1269 32.3234L32.3598 32.6291C32.3163 32.5652 32.2797 32.4969 32.2506 32.4253L32.3961 32.7892C32.3725 32.7151 32.353 32.6398 32.3379 32.5636L32.3961 32.9638C32.3816 32.8722 32.3816 32.7789 32.3961 32.6873L32.3379 33.0875C32.35 32.9972 32.3745 32.9091 32.4107 32.8255L32.2579 33.1821C32.2852 33.1127 32.3247 33.0486 32.3743 32.9929L32.1342 33.2912L32.2579 33.1748L31.9595 33.4077C32.0036 33.3718 32.0527 33.3424 32.1051 33.3204L31.7485 33.4732L31.894 33.4295L31.4938 33.4877H31.7412L31.341 33.4368C31.3962 33.4435 31.4501 33.4582 31.5011 33.4804L31.1445 33.3276L31.341 33.4441L31.0354 33.2039C31.1128 33.2668 31.1835 33.3376 31.2464 33.415L31.0063 33.1093C31.0682 33.1871 31.1196 33.2727 31.1591 33.364L31.0063 33.0075C31.0333 33.0805 31.0528 33.1561 31.0645 33.233L31.0136 32.8474C31.0209 32.9515 31.0209 33.0561 31.0136 33.1603L31.0645 32.7673C31.0421 32.8686 31.013 32.9683 30.9772 33.0657L31.13 32.7091C31.0691 32.8455 30.9934 32.9748 30.9044 33.0948L31.1373 32.7964C31.0289 32.9278 30.907 33.0473 30.7734 33.153L31.0645 32.9274C30.9739 32.9956 30.8763 33.0542 30.7734 33.1021L31.1227 32.9565C31.0455 32.9862 30.9648 33.0058 30.8826 33.0147L31.2683 32.9638C31.203 32.9711 31.1371 32.9711 31.0718 32.9638L31.4574 33.0147L31.2828 32.9638L31.6248 33.1093C31.5407 33.0678 31.4604 33.0192 31.3847 32.9638L31.6758 33.1894L31.5084 33.0147L31.7267 33.2985C31.645 33.1907 31.5766 33.0735 31.5229 32.9493L31.6612 33.2767C31.6095 33.1454 31.5729 33.0087 31.552 32.8692L31.603 33.2403C31.5884 33.1195 31.5884 32.9973 31.603 32.8765L31.552 33.233C31.5802 33.0786 31.6241 32.9274 31.683 32.7819L31.552 33.0948C31.6179 32.951 31.6983 32.8145 31.7922 32.6873L31.5884 32.9493L31.7412 32.8474C31.7776 32.8037 31.9232 32.6946 31.7412 32.8474L31.894 32.7673L31.5957 32.891L31.7049 32.8546C32.0687 32.7018 32.1051 32.6873 31.814 32.8037L32.025 32.7528L31.7121 32.7964C31.7776 32.7964 32.0541 32.7964 31.8358 32.7964C31.6175 32.7964 31.7049 32.7964 32.0396 32.8328L31.8504 32.7964C31.896 32.8044 31.9401 32.8191 31.9814 32.8401C32.1051 32.8401 31.7631 32.7528 31.8795 32.7964L31.945 32.8401L31.8286 32.7455C31.9013 32.7455 32.0032 32.8983 32.0687 32.942C32.2426 33.0375 32.4379 33.0875 32.6363 33.0875L32.1706 32.9565C32.1269 32.9201 32.3452 33.0584 32.1706 32.9565C32.1124 32.8546 32.2142 32.9929 32.1706 32.9565C32.238 33.0497 32.3266 33.1256 32.4291 33.1779C32.5315 33.2302 32.6449 33.2575 32.76 33.2575C32.875 33.2575 32.9884 33.2302 33.0909 33.1779C33.1933 33.1256 33.2819 33.0497 33.3494 32.9565L33.3421 32.8983Z" fill="#E30613"/>
<path d="M30.5842 38.494L30.6716 38.5595L30.7589 38.625C30.8234 38.6615 30.8917 38.6908 30.9626 38.7123C31.1153 38.7524 31.2757 38.7524 31.4283 38.7123H31.4647C31.5417 38.6915 31.6152 38.6596 31.683 38.6177C31.7606 38.5659 31.8337 38.5074 31.9013 38.4431C31.9768 38.3729 32.0342 38.2855 32.0687 38.1884C32.0687 38.1375 32.0687 38.1156 32.1124 38.072C32.156 38.0283 32.1124 38.072 32.1124 38.0283V37.9119C32.1192 37.8282 32.1338 37.7454 32.156 37.6645C32.1779 37.5785 32.1779 37.4885 32.156 37.4025C32.1506 37.3146 32.123 37.2296 32.076 37.1551L31.9741 37.0241C31.9165 36.9611 31.8439 36.9135 31.7631 36.8859C31.7121 36.8569 31.6543 36.8418 31.5957 36.8422C31.5097 36.8203 31.4197 36.8203 31.3337 36.8422L31.1737 36.9077C31.0793 36.9665 30.9996 37.0462 30.9408 37.1406C30.9422 37.1599 30.9422 37.1794 30.9408 37.1988L31.0427 37.0678L30.8898 37.257L30.8244 37.3298C30.7634 37.385 30.714 37.4518 30.6788 37.5262V37.5699L30.7953 37.4171H30.7589L30.9117 37.3006H30.868L31.0427 37.2279H30.999H31.1882H31.3774L31.552 37.3006C31.4712 37.249 31.3785 37.2189 31.2828 37.2133C31.1899 37.188 31.0919 37.188 30.999 37.2133L30.8316 37.2861C30.7496 37.3288 30.6795 37.3913 30.6279 37.468C30.5869 37.5152 30.5549 37.5695 30.5333 37.6281C30.4893 37.7133 30.4692 37.8089 30.4751 37.9046V38.0938C30.5121 38.2139 30.5769 38.3236 30.6643 38.414L30.5842 38.494Z" fill="black"/>
<path d="M29.973 38.334C30.0536 38.4728 30.169 38.5881 30.3077 38.6688C30.39 38.709 30.4751 38.743 30.5624 38.7706L30.6716 38.807C30.8844 38.858 31.1063 38.858 31.3192 38.807L31.603 38.7634C31.6944 38.7425 31.7843 38.7157 31.8722 38.6833C32.0543 38.6322 32.2199 38.5344 32.3525 38.3995C32.4577 38.3011 32.5376 38.1788 32.5854 38.043C32.6498 37.9117 32.6823 37.7671 32.68 37.6209C32.6775 37.4265 32.6249 37.236 32.5271 37.0679C32.4283 36.8976 32.2882 36.7549 32.1196 36.6531C32.0297 36.6038 31.9345 36.5647 31.8359 36.5367C31.6422 36.4837 31.438 36.4827 31.2438 36.5338C31.0496 36.5849 30.8723 36.6863 30.7298 36.8277C30.6246 36.9261 30.5447 37.0484 30.4969 37.1843C30.4346 37.3175 30.4022 37.4629 30.4022 37.61C30.4022 37.7571 30.4346 37.9024 30.4969 38.0357C30.5447 38.1694 30.6247 38.2894 30.7298 38.385L30.9481 38.5596C31.1188 38.6574 31.3117 38.7099 31.5084 38.7124L31.7995 38.6688C31.9838 38.6179 32.1518 38.5201 32.287 38.385L32.0614 38.5596L31.7995 38.6688L31.5084 38.7051L31.2173 38.6615L30.9554 38.5523L30.7298 38.3777L30.5551 38.1521L31.21 36.5367C31.0313 36.5963 30.8563 36.6668 30.6861 36.7477L30.4387 36.8714L30.3805 36.9078C30.2191 37.0012 30.0839 37.1338 29.9876 37.2934L29.9221 37.3808C29.836 37.5183 29.7875 37.6759 29.7811 37.838C29.7747 38.0001 29.8108 38.1611 29.8857 38.3049L29.973 38.334Z" fill="black"/>
</g>
<defs>
<clipPath id="clip0_221_52">
<rect width="64.8505" height="59" fill="white"/>
</clipPath>
</defs>
</svg>
