<svg width="129" height="113" viewBox="0 0 139 123" fill="none" xmlns="http://www.w3.org/2000/svg">
<path d="M119.262 27.1808C113.466 17.2557 104.274 9.49323 93.4958 5.35633C80.6833 0.438612 66.5611 1.54162 53.4667 4.77037C40.6158 7.93799 28.6556 14.0621 19.2665 23.4221C10.2029 32.4626 3.5843 44.0697 2.14247 56.8632C0.756819 69.1415 4.0438 81.7003 10.3474 92.267C13.5953 97.713 17.6196 102.696 22.4217 106.874C27.4207 111.213 33.3196 114.309 39.6113 116.362C51.5075 120.245 64.512 121.56 76.952 120.071C89.1622 118.606 101.016 114.326 110.708 106.704C120.328 99.1329 127.355 88.7617 132.257 77.6827C135.009 71.4597 137.285 64.7375 136.998 57.8502C136.725 51.3555 133.787 45.5544 130.866 39.8816C129.454 37.1266 128.056 34.3642 126.965 31.4681C126.325 29.7646 122.835 30.5289 123.542 32.4028C125.695 38.1524 129.097 43.3317 131.349 49.0297C132.475 51.8752 133.25 54.8049 133.395 57.8736C133.558 61.1991 133.052 64.4927 132.184 67.6923C130.599 73.5747 127.996 79.2453 125.005 84.5508C122.148 89.6042 118.768 94.4091 114.782 98.6525C106.809 107.118 96.6334 112.863 85.33 115.662C74.0552 118.447 62.1505 118.392 50.7787 116.201C44.5516 115.003 38.3435 113.219 32.741 110.219C27.32 107.315 22.6908 103.156 18.8147 98.4344C11.3268 89.3084 6.4556 77.9398 5.56953 66.1629C5.12704 60.3066 5.7056 54.4336 7.41029 48.8063C9.18969 42.9136 12.1122 37.4234 15.7628 32.4642C23.0009 22.6466 33.1237 15.0243 44.5371 10.6162C50.7046 8.22955 57.2089 6.63017 63.76 5.67993C70.476 4.70556 77.3546 4.42129 84.0505 5.69697C94.6282 7.70887 104.392 13.5479 111.303 21.7192C112.998 23.7197 114.537 25.8585 115.854 28.1223C116.321 28.9146 117.211 29.257 118.113 29.0066C118.772 28.8172 119.729 27.9802 119.262 27.1808Z" fill="white"/>
<path d="M96.8053 27.1026C91.2071 34.3281 86.8233 42.4106 83.8914 51.0516C83.4004 52.4919 86.7474 53.7912 87.2249 52.387C90.0896 43.9476 94.3255 35.9972 99.7981 28.9389C100.831 27.6073 97.6639 25.9965 96.8053 27.1026Z" fill="white"/>
<path d="M80.3839 29.9058C80.3628 29.9277 80.3345 29.9498 80.3135 29.9717C80.9744 29.9347 81.6282 29.8978 82.2891 29.8607C82.2526 29.8401 82.2232 29.8122 82.1867 29.7917C82.4758 30.1491 82.7721 30.5136 83.0611 30.871C83.0386 30.8287 83.0232 30.7862 83.0006 30.7439C82.9815 31.1515 82.9623 31.5591 82.9432 31.9667C82.9639 31.9305 82.9847 31.8943 83.0052 31.8509C82.6871 32.087 82.3688 32.316 82.0435 32.5523C82.108 32.5436 82.1726 32.5349 82.2371 32.5262C81.8179 32.4433 81.3985 32.3532 80.9794 32.2703C81.5543 32.5496 82.4086 33.6937 82.9759 34.2588C83.7345 35.0052 84.5 35.737 85.2795 36.4543C86.8385 37.8889 88.4468 39.2794 90.0897 40.612C93.434 43.3186 96.9246 45.8217 100.583 48.0995C101.305 48.5466 102.383 48.4712 102.802 47.6541C103.228 46.8225 102.722 45.8131 101.985 45.3519C97.6993 42.689 93.6221 39.7141 89.8106 36.4185C87.8865 34.7569 86.0253 33.0152 84.2345 31.2075C83.3722 30.335 82.4348 29.0286 81.0237 29.2835C79.1326 29.6211 79.7025 31.8148 80.8794 32.6084C81.479 33.0156 82.3196 32.9743 82.8551 32.4973C82.8761 32.4754 82.9044 32.4533 82.9254 32.4314C84.4187 31.0889 81.8771 28.5633 80.3839 29.9058Z" fill="white"/>
<path d="M38.7315 34.0918C34.2432 40.7982 30.2006 47.794 26.6166 55.0219C25.9849 56.294 28.5764 56.3684 29.2067 56.2535C30.1162 56.0819 30.8174 55.6153 31.3832 54.9019C31.8858 54.2543 30.6071 53.7203 30.1879 53.6373C29.4217 53.484 28.4598 53.5711 27.95 54.2189C27.7754 54.4373 27.7535 54.4235 27.4813 54.4728C28.347 54.8809 29.2055 55.2892 30.0713 55.7044C33.6481 48.4767 37.6981 41.4878 42.1862 34.7743C42.9501 33.6134 39.4611 33.0031 38.7315 34.0918Z" fill="white"/>
<path d="M25.2623 35.4963C25.2832 35.4673 25.2969 35.4384 25.3178 35.4093C25.5192 35.1045 25.4079 34.6571 25.2572 34.3679C24.6175 33.1758 22.2296 32.8895 21.5633 34.2196C20.9383 35.4701 22.515 36.74 23.2539 37.5653C24.9976 39.5098 26.8896 41.3365 28.9003 43.0104C30.9404 44.7121 33.0997 46.2825 35.3487 47.6936C37.5976 49.0975 39.9827 50.4839 42.4864 51.4104C43.2338 51.6855 44.4022 51.5079 44.7867 50.7345C45.1918 49.9177 44.4274 49.2287 43.7234 48.9668C41.8802 48.289 40.1218 47.2448 38.4435 46.2417C36.7435 45.2319 35.099 44.1351 33.524 42.9366C31.9636 41.745 30.4658 40.4661 29.0456 39.1211C28.3171 38.4312 27.6023 37.7124 26.9161 36.9858C26.5694 36.6226 26.2297 36.252 25.8971 35.8742C25.7272 35.6853 25.5644 35.4963 25.4017 35.3073C25.2686 35.1533 25.0857 34.7219 25.0413 34.973C24.8324 35.2636 24.6234 35.5543 24.4147 35.8521C24.4501 35.8299 24.4856 35.8076 24.5136 35.7783C24.0768 35.8601 23.6399 35.9419 23.203 36.0237C23.2463 36.0298 23.2896 36.0359 23.3328 36.0349C23.0356 35.9419 22.7457 35.8488 22.4485 35.7558C22.485 35.7764 22.5216 35.8041 22.5581 35.8246C22.3596 35.6436 22.1682 35.4624 21.9697 35.2814C21.9848 35.3096 22 35.345 22.0223 35.373C21.9996 35.0236 21.9771 34.6812 21.9616 34.3316C21.9407 34.3606 21.927 34.3895 21.9061 34.4186C21.4131 35.166 22.3244 35.9802 22.9695 36.1863C23.803 36.4523 24.7694 36.2509 25.2623 35.4963Z" fill="white"/>
<path d="M87.1802 75.7173C83.7612 69.5552 74.8401 68.9021 68.7282 70.5326C61.8799 72.359 55.9599 77.535 54.5806 84.6035C53.9647 87.761 54.3401 91.1593 55.861 94.0233C57.4948 97.099 60.4552 99.3861 63.6652 100.674C67.4273 102.185 71.5754 102.38 75.5645 101.936C79.3384 101.518 83.1642 100.556 86.2763 98.3106C93.7382 92.9339 91.7235 82.2742 87.2072 75.6452C86.6109 74.7665 83.5851 76.7024 84.1665 77.5601C86.1267 80.4423 87.4631 83.7179 87.9406 87.1781C88.357 90.1826 88.2021 93.6649 86.2761 96.1749C84.6222 98.3283 81.6674 99.0126 79.1165 99.4373C75.491 100.045 71.6659 100.128 68.1097 99.105C62.1124 97.3754 57.4955 92.5703 57.4305 86.1789C57.3748 80.4801 60.6084 75.1677 66.0638 73.1528C71.8757 71.0009 80.8113 71.6608 84.1324 77.6395C84.6276 78.4992 87.7063 76.6692 87.1802 75.7173Z" fill="white"/>
</svg>
