<svg width="131" height="119" viewBox="0 0 131 119" fill="none" xmlns="http://www.w3.org/2000/svg">
<path d="M51.0251 47.8083C47.6589 46.8306 44.4441 45.9974 41.3807 45.3086C40.1182 41.326 39.4809 37.1728 39.4914 32.9961C39.4914 14.7733 51.2425 0 65.7383 0C80.2341 0 91.9739 14.7594 91.9739 32.985C91.9825 36.9658 91.4041 40.9261 90.2574 44.7392C86.4454 45.5354 82.3844 46.5585 78.0745 47.8083C71.944 49.5914 66.9866 51.3579 64.5428 52.2661C62.1129 51.3579 57.1556 49.5914 51.0251 47.8083ZM15.3708 71.4C12.3306 71.4 9.35872 72.2986 6.83095 73.9822C4.30318 75.6657 2.33307 78.0586 1.16977 80.8582C0.00647511 83.6578 -0.297755 86.7384 0.295556 89.7103C0.888867 92.6823 2.35307 95.4121 4.50299 97.5546C6.65291 99.6971 9.39199 101.156 12.3738 101.747C15.3556 102.338 18.4463 102.034 21.2549 100.874C24.0635 99.7139 26.4639 97.7498 28.1525 95.23C29.8411 92.7102 30.7421 89.7479 30.7416 86.7177C30.7408 82.6549 29.1211 78.7588 26.2386 75.8863C23.3561 73.0137 19.4469 71.4 15.3708 71.4ZM115.629 71.4C112.589 71.4 109.617 72.2986 107.089 73.9822C104.562 75.6657 102.591 78.0586 101.428 80.8582C100.265 83.6578 99.9607 86.7384 100.554 89.7103C101.147 92.6823 102.611 95.4121 104.761 97.5546C106.911 99.6971 109.65 101.156 112.632 101.747C115.614 102.338 118.705 102.034 121.513 100.874C124.322 99.7139 126.722 97.7498 128.411 95.23C130.1 92.7102 131.001 89.7479 131 86.7177C130.999 82.6554 129.38 78.7597 126.498 75.8873C123.616 73.0148 119.708 71.4007 115.632 71.4H115.629ZM95.8027 86.7177C95.8069 82.8964 96.9213 79.1581 99.011 75.9544C101.101 72.7507 104.076 70.2187 107.579 68.6642V47.1251C89.6081 47.1251 64.5428 57.0239 64.5428 57.0239C64.5428 57.0239 39.4775 47.1251 21.5068 47.1251V67.9337C25.4846 69.2256 28.9503 71.7386 31.408 75.1131C33.8656 78.4876 35.1892 82.5506 35.1892 86.7204C35.1892 90.8903 33.8656 94.9533 31.408 98.3278C28.9503 101.702 25.4846 104.215 21.5068 105.507V107.451C39.4775 107.451 64.5428 119 64.5428 119C64.5428 119 89.6193 107.46 107.579 107.46V104.771C104.076 103.217 101.101 100.685 99.011 97.4809C96.9213 94.2772 95.8069 90.5389 95.8027 86.7177Z" fill="white"/>
</svg>
