<svg width="138" height="132" viewBox="0 0 138 132" fill="none" xmlns="http://www.w3.org/2000/svg">
<path d="M101.48 74.2489C94.2266 75.188 85.0023 75.8332 73.3666 76.2119C65.9833 76.4512 57.7033 76.5723 48.7516 76.5723C37.4802 76.5723 27.4352 76.3815 21.2181 76.2422C21.2726 82.2484 22.2222 88.2166 24.0383 93.9668C31.1427 116.65 49.7972 132 68.3631 132C71.4195 132.002 74.4598 131.578 77.3877 130.74C97.9848 124.845 108.47 99.8528 101.48 74.2489ZM50.0254 100.689L45.7222 98.1897L43.8209 101.38L38.8333 98.6531L40.8201 95.3421L36.3838 92.7671L39.3688 88.0717L43.672 90.5709L45.5733 87.381L50.5609 90.1074L48.5741 93.4185L53.0104 95.9934L50.0254 100.689ZM81.1744 92.8671L76.8712 90.3679L74.97 93.5578L69.9823 90.8314L71.9596 87.5082L67.5234 84.9363L70.5178 80.2378L74.821 82.737L76.7223 79.5472L81.7099 82.2736L79.7231 85.5846L84.1594 88.1595L81.1744 92.8671ZM119.767 24.0195L126.738 29.5723L134.445 25.0041L131.073 33.053L138 38.6482L128.953 38.0696L125.518 46.0973L123.3 37.6909L114.256 37.0548L121.915 32.4411L119.767 24.0195ZM119.697 0.13632L120.356 5.55276L125.94 6.66452L120.756 8.93652L121.389 14.356L117.52 10.3452L112.32 12.5838L115.115 7.83687L111.281 3.79878L116.874 4.87419L119.697 0.13632ZM7.81736 0L13.6574 6.62514L22.0832 3.42011L17.2888 10.7874L23.0813 17.452L14.2785 15.3708L9.42393 22.6988L8.79017 14.0531L0 11.9113L8.40358 8.65176L7.81736 0ZM119.697 62.1952C118.252 66.0303 111.598 70.1169 73.205 71.3649C65.0042 71.6315 56.5784 71.7224 48.7611 71.7224C35.4807 71.7224 10.3555 71.3558 10.3555 71.3558V66.5089C10.3555 66.5089 35.5378 66.8755 48.7642 66.8755C56.4136 66.8755 64.6461 66.7876 72.6663 66.5301C84.9516 66.1393 94.8255 65.4123 102.015 64.3763C112.811 62.8162 114.63 60.9743 114.89 60.6078C114.814 60.4351 114.504 59.8959 113.35 59.0234C110.137 56.6 104.31 54.1765 96.4606 51.9227C94.8625 49.671 93.1095 47.5235 91.2131 45.4945C91.8468 45.649 92.4806 45.7974 93.0763 45.958C104.221 48.7934 112.089 51.9076 116.487 55.2156C118.55 56.7848 120.79 59.2628 119.697 62.1952ZM23.1099 61.7377C23.5852 59.5172 25.911 53.71 27.0423 52.0681C44.8983 53.2374 74.8432 47.306 82.9331 44.4463C87.7528 48.4602 93.2981 55.3034 95.8015 60.2564C77.6412 62.2315 45.2817 62.2709 23.1003 61.7408L23.1099 61.7377ZM29.2573 39.8993C26.0631 39.7175 18.569 39.2722 15.7425 40.5052C19.5038 43.901 39.5082 44.2797 56.3756 41.9956C74.4566 39.5479 91.2321 35.4947 101.077 29.0816C105.178 26.4097 107.345 22.5049 106.952 20.7721C104.956 11.9386 51.7777 8.81838 51.7777 8.81838C51.7777 8.81838 108.274 9.9362 108.692 20.7691C109.142 32.3896 82.6637 41.3079 57.2185 45.1037C33.0503 48.7086 9.88023 48.96 11.0812 39.4297C11.7783 33.8921 27.3465 34.9251 34.0833 35.6582C32.7461 36.5398 30.2966 38.8572 29.2478 39.9023L29.2573 39.8993ZM53.3019 34.1042C57.8518 33.6886 62.4425 34.1627 66.7945 35.4977C62.7607 36.4428 48.3238 38.318 39.8093 38.527C46.5302 34.6101 52.1009 34.2435 53.2924 34.1072L53.3019 34.1042Z" fill="white"/>
</svg>
