<svg width="111" height="111" viewBox="0 0 111 111" fill="none" xmlns="http://www.w3.org/2000/svg">
<path d="M111 55.4812C111 86.1432 86.1573 111 55.4999 111C24.8425 111 0 86.1288 0 55.4812C0 25.4665 23.8113 1.0171 53.5677 0C51.1181 3.99069 46.2939 8.27022 39.5807 12.2549L39.208 12.4805L39.1417 12.5208C33.8295 15.8296 32.2379 20.7073 34.7741 25.9028C35.7937 27.9891 38.0007 30.7979 42.5098 30.7979C44.2864 30.7979 46.4181 30.3616 48.9746 29.275L49.2404 29.1624C49.896 28.937 50.4564 28.4746 51.6726 27.4747C53.2556 26.1716 56.5516 23.4611 58.3772 23.3078C59.7321 23.1951 60.0151 23.3947 61.8435 24.7035C62.4731 25.1543 63.2214 25.689 64.1544 26.3043C62.2574 28.9127 61.2683 32.0716 61.3388 35.2964C61.4092 38.5212 62.5354 41.6338 64.5445 44.1568C66.7341 47.266 68.9207 50.1874 66.4251 56.958C63.2706 65.5112 66.4511 65.7885 64.195 68.9151C62.4618 71.3136 60.9105 68.4325 55.1593 67.7911C52.5897 67.3699 49.961 67.4823 47.4368 68.1214C44.9126 68.7606 42.547 69.9127 40.4872 71.5061C38.4274 73.0994 36.7176 75.0999 35.4642 77.383C34.2109 79.666 33.4407 82.1828 33.2019 84.7765C32.963 87.3702 33.2604 89.9853 34.0757 92.459C34.8909 94.9328 36.2066 97.2121 37.9406 99.1551C39.6747 101.098 41.7901 102.663 44.155 103.753C46.52 104.843 49.0839 105.434 51.6871 105.489C51.8321 105.523 51.9803 105.54 52.129 105.541C61.8032 105.501 70.6397 100.031 71.9828 97.1211C73.3259 94.211 75.9635 92.6044 77.6419 92.2087C91.7413 88.7814 116.991 50.5977 87.0471 25.1543C85.8167 23.7809 84.3403 22.6499 82.694 21.8197L82.6709 21.8052C80.279 20.6079 77.6065 20.0844 74.9398 20.2911C72.2732 20.4978 69.7131 21.4268 67.5342 22.9784C66.2461 22.1751 65.2928 21.4961 64.5271 20.9556C62.4242 19.4559 61.0347 18.4649 57.99 18.7163C54.9455 18.9677 51.765 21.4237 48.7464 23.9176C48.3132 24.273 47.7844 24.7093 47.5475 24.877L47.178 25.03C41.5392 27.4257 39.8118 25.6774 38.9366 23.8742C37.443 20.8142 38.2605 18.5225 41.5942 16.4478L41.6665 16.4017L41.9553 16.234C47.4696 12.96 55.6994 7.13175 58.802 0.0521216C87.9078 1.7509 111 25.9199 111 55.4812H111Z" fill="white"/>
</svg>
