<?xml version="1.0" encoding="UTF-8"?>
<svg id="Layer_1" data-name="Layer 1" xmlns="http://www.w3.org/2000/svg" viewBox="0 0 214 65">
  <defs>
    <style>
      .cls-1 {
        fill: #fff;
      }

      .cls-2 {
        fill: #ccb8b8;
      }

      .cls-3 {
        fill: #ff0101;
      }
    </style>
  </defs>
  <g>
    <path class="cls-1" d="M86.58,13.64V51.52c0,.78-.63,1.41-1.41,1.41h-4.02c-.78,0-1.42-.63-1.42-1.41V18.51h-10.16c-.78,0-1.41-.63-1.41-1.41v-3.46c0-.78,.63-1.41,1.41-1.41h15.6c.78,0,1.41,.63,1.41,1.41Z"/>
    <path class="cls-1" d="M94.79,18.8c1.86,0,3.37-1.47,3.37-3.28s-1.51-3.28-3.37-3.28-3.37,1.47-3.37,3.28,1.51,3.28,3.37,3.28Z"/>
  </g>
  <g>
    <path class="cls-1" d="M123.03,41.84h0s0,0,0,0Z"/>
    <path class="cls-1" d="M123.03,41.81c.05-.25,.35-1.99,.44-2.52v-.02c-.07,.39-.27,1.53-.44,2.55,0,0,0,0,0-.02Z"/>
    <path class="cls-1" d="M130.11,33.4c0-2.11,.03-2.4,0-3.75-.02-.87-.04-1.92-.12-2.93-.17-2.19-.35-4.68-1.65-7.39-.58-1.23-1.34-2.38-2.24-3.4-1.2-1.32-2.64-2.4-4.25-3.17-2.85-1.36-5.41-1.33-7.21-1.29-2.05,.04-4.76,.1-7.68,1.76-3.4,1.93-5.08,4.89-5.67,6.22-.69,1.54-1.03,3.16-1.18,3.87-.08,.4-.15,.77-.21,1.13-.14,.87-.23,1.74-.26,2.62-.08,1.85,.02,2.79,0,5.28,0,.54-.05,4.57,0,5.63,.02,.41,.05,.82,.05,.82,.02,.23,.04,.51,.07,.81,.09,1.03,.25,2.04,.47,3.05,.27,1.17,.67,2.31,1.18,3.4,.87,1.8,2.12,3.4,3.66,4.69,3.94,3.23,8.7,3.1,10.63,3.05,1.18-.03,3.01-.1,5.2-.94,.96-.37,3.49-1.37,5.55-3.87,1.34-1.63,1.94-3.23,2.36-4.34,.42-1.14,.74-2.32,.95-3.52,.2-1.16,.32-2.34,.35-3.52,.06-1.22,0-1.26,0-4.22Zm-6.62,5.63c0,.09-.01,.17-.02,.25,.01-.09,.02-.13,.02-.13,0,0,0,.06-.03,.15-.09,.85-.24,1.69-.44,2.52v.03c-.51,1.36-.85,2.26-1.65,3.17-1.08,1.22-2.34,1.71-3.07,1.99-.63,.25-4.61,1.8-8.15-.47-.25-.16-2.93-1.92-3.54-5.04,0-.02-.06-.41-.12-.94,0,0-.08-.7-.12-1.41-.12-2.03,.08-8.97,0-12.9,0-.19,0-.35,0-.59,.03-.88,.1-3.02,1.54-4.93,.49-.65,1.09-1.21,1.77-1.66,1-.66,2.12-1.09,3.31-1.27,.59-.07,1.18-.11,1.77-.12,.75-.03,1.5,0,2.24,.12,.61,.1,2.4,.43,3.9,1.88,.71,.68,1.07,1.35,1.42,1.99,0,0,1.1,2.07,1.18,4.22v.7h0v8.45c.01,2.84,.08,3,0,3.99Z"/>
  </g>
  <path class="cls-2" d="M165.44,42.79h0s0,0,0,0h0Z"/>
  <g>
    <path class="cls-3" d="M165.73,13.52v5.84s-.01,.09-.01,.13c0,.66-.05,1.31-.16,1.96,0,0,0,.01-.01,.02,0,.01-.01,.01-.01,.01-.01,.12-.03,.24-.05,.35-.77,4.32-2.36,6.59-2.36,6.59-1.21,1.98-2.33,2.74-2.83,3.05-.05,.03-.1,.06-.15,.09,.05,.02,.1,.05,.15,.08,.49,.31,1.62,1.07,2.83,3.05,0,0,1.02,1.47,1.83,4.27h0s.01,.03,.01,.04c.01,.04,.02,.09,.04,.14,.13,.44,.24,.93,.35,1.44,.02,.11,.03,.22,.05,.33,.04,.39,.11,.81,.1,1.22h0s.01,.04,.01,.05c.01,.17,0,.34-.05,.5,0,0-.01,0-.01,0v.02h0v.03s-.01,.02-.02,.03h0v.02h0s-.01,.02-.01,.02h0v.03h0s-.03,.05-.03,.05c-.01,0-.01,.01-.02,.01-.13,.19-.29,.35-.49,.46-.21,.12-.45,.19-.7,.19h-3.9c-.27,0-.53-.08-.76-.23-.23-.14-.4-.34-.51-.58h.02s-.03-.05-.04-.07c-.01-.03-.01-.06-.02-.08v-.02s-.01-.01-.01-.02c0-.02,0-.03-.01-.04v-.06s-.01-.02-.01-.02c-.02-.08-.04-.16-.04-.24h0v-.02s-.02-.01-.02-.02v-.06s0-.08,0-.11h0c-.05-.63-.07-1.06-.23-1.66,0,0-.04-.16-.1-.33-.34-1.09-.91-2.1-1.67-2.95-1.38-1.51-3.06-2-3.9-2.23-.3-.08-4.43-1.16-7.68,1.17-.43,.31-.82,.67-1.18,1.06-1.11,1.38-1.81,3.05-2.01,4.81-.04,.35-.13,1.54-.12,2.21,.01,.03,.01,.06,.01,.09v7.35c0,.38-.15,.74-.42,1-.26,.27-.62,.42-1,.43h-3.9c-.24-.01-.48-.07-.69-.19-.21-.11-.39-.28-.51-.49,0-.04,0-.08-.01-.12,0-.03-.01-.05-.01-.08,0-.05-.01-.09-.02-.13,0-.05-.01-.09-.02-.14-.01-.15-.01-.31-.02-.45-.03-.48-.09-.97-.09-1.45,0-.05,0-.09-.01-.14h0c-.01-.12-.02-.23-.04-.33v-5.26c0-.12,0-.24,.05-.35,0-.48,.06-.96,.09-1.44v-.15c.1-.97,.17-1.52,.34-2.24,.11-.52,.25-.95,.35-1.29,.16-.54,.34-1.07,.47-1.41,.39-1.03,.91-2.02,1.54-2.93,0,0,1.05-1.48,2.48-2.58,.09-.07,.18-.14,.28-.2-.1-.07-.19-.14-.28-.21-1.43-1.1-2.48-2.58-2.48-2.58-.63-.91-1.15-1.9-1.54-2.93-.13-.34-.31-.86-.47-1.41-.1-.34-.24-.77-.35-1.29-.12-.51-.19-.93-.26-1.49,0-.04,0-.08-.01-.11,0-.03-.01-.06-.01-.09h0c-.01-.08-.02-.14-.03-.22,0-.07-.01-.15-.02-.23v-.04c0-.07,0-.15-.01-.21-.03-.48-.09-.96-.09-1.44,0-.05,0-.09-.01-.14h0s-.01-.06-.01-.09c-.01-.08-.02-.16-.03-.24v-5.2c0-.37,.15-.73,.42-.99,.26-.27,.62-.42,1-.42h3.9c.37,0,.73,.15,1,.42,.27,.26,.42,.62,.42,.99v5.16c-.02,.21-.01,.55,0,.92,.03,.61,.09,1.29,.11,1.54,.2,1.76,.9,3.43,2.01,4.81,.36,.39,.75,.75,1.18,1.06,3.25,2.33,7.38,1.25,7.68,1.17,.84-.23,2.52-.72,3.9-2.23,.84-.94,1.44-2.07,1.77-3.28,.15-.58,.26-1.17,.33-1.77,.01-.1,.03-.2,.03-.3v-7.2c0-.37,.15-.73,.41-.99,.27-.26,.63-.41,1-.41h3.9c.38,0,.74,.15,1,.41,.27,.26,.42,.62,.42,.99Z"/>
    <path class="cls-3" d="M165.73,49.76c0,1.81-1.51,3.28-3.37,3.28s-3.36-1.47-3.36-3.28,1.5-3.28,3.36-3.28,3.37,1.47,3.37,3.28Z"/>
  </g>
  <path class="cls-1" d="M177.19,12.12h-4.02c-.78,0-1.42,.63-1.42,1.41V51.64c0,.78,.63,1.41,1.42,1.41h4.02c.78,0,1.42-.63,1.42-1.41V13.52c0-.78-.63-1.41-1.42-1.41Z"/>
  <path class="cls-2" d="M207.09,22.11v.03s-.01,.05-.03,.07c0,.01-.01,.01-.01,.02-.01,.01-.02,.02-.03,.03-.02,.03-.04,.04-.08,.05-.04,.01-.09,0-.13-.02-.02-.01-.04-.02-.05-.04,0,0,0,0,0-.02v-.02s-.01-.03-.01-.05c-.02-.06-.02-.12-.02-.19v-.02c0-.14,.02-.27,.07-.39,0-.02,0-.04,.02-.06t.02,.02s.05,.08,.05,.12v.02s.04,.08,.05,.11c0,.02,.03,.05,.05,.08,.04,.07,.07,.14,.1,.22,.01,.01,.01,.03,.01,.04Z"/>
  <path class="cls-2" d="M213.57,21.94v.03h0s0,.07,0,.1c0,.04,0,.08-.01,.12,0,.01-.01,.01-.01,.02l-.02,.04s-.08,.05-.13,.05-.09-.02-.13-.05c0-.02-.02-.04-.03-.06-.01-.02-.02-.05-.02-.07-.03-.03-.04-.07-.04-.11,0-.03,.01-.07,.03-.09,0-.04-.01-.07-.01-.11s0-.07,.01-.11v-.08s-.01-.07-.01-.11h.01v-.18s.01-.1,.04-.13c.02-.02,.04-.03,.07-.04,.05,.06,.08,.12,.11,.19,.04,.06,.06,.13,.08,.2,0,0,0,0,0,.02,.02,.02,.03,.05,.03,.07v.03s.02,.04,.01,.07h.01v.02h0v.02s.01,0,.01,.01h0v.02s0,.01-.01,.02c0,0,.01,0,.01,.01h0s0,.03,0,.05v.03s0,.01,0,.02Z"/>
  <path class="cls-2" d="M207.09,22.11v.03s-.01,.05-.03,.07c0,.01-.01,.01-.01,.02-.01,.01-.02,.02-.03,.03-.02,.01-.04,.02-.06,.03-.05,.01-.1,0-.14-.02-.04-.03-.07-.06-.08-.11v-.02s-.06-.1-.1-.15c-.01-.02-.02-.04-.03-.07-.03-.04-.05-.08-.07-.12v-.02s-.01-.02-.01-.04c0-.03-.01-.07,0-.1,0-.03,.01-.06,.02-.08l.03-.04s.08-.05,.13-.05c.03,0,.07,.01,.1,.03t.02,.02s.05,.08,.05,.12v.06s.03,.04,.05,.07c0,.02,.03,.05,.05,.08,.04,.07,.07,.14,.1,.22,.01,.01,.01,.03,.01,.04Z"/>
  <path class="cls-2" d="M207.07,22.09v.07s0,.04,0,.05-.01,.01-.01,.02c-.01,.01-.02,.02-.03,.03-.02,.03-.04,.04-.08,.05-.04,.01-.09,0-.13-.02-.02-.01-.04-.02-.05-.04,0,0,0,0,0-.02h0s-.02-.03-.02-.04h0c-.02-.06-.05-.1-.07-.15-.01-.02-.01-.03-.02-.05-.01-.02-.02-.04-.03-.07,0-.03-.01-.06-.03-.09,0-.01-.01-.01-.01-.02-.03-.04-.03-.09-.02-.13,.01-.05,.04-.08,.08-.11,.04-.02,.09-.03,.14-.02,.01,0,.01,0,.02,0,.03,.02,.06,.05,.08,.08,0,.01,0,.01,0,.02,.03,.04,.04,.08,.05,.11,0,.02,0,.04,.02,.06,.01,.04,.03,.06,.05,.11,.02,.05,.04,.1,.07,.15Z"/>
  <path class="cls-2" d="M213.57,21.87s.01,.01,.01,.02h-.01v.06h0v.03h0s-.01,.01-.01,.01h0s-.01,.02-.02,.03h-.01s-.04,.05-.06,.06-.03,.01-.05,.01h-.03s-.05-.01-.08-.02c-.02-.02-.05-.04-.06-.06h0s-.01-.02-.01-.03t-.01-.02s-.01-.01-.01-.02v-.02h-.01s-.01-.07-.01-.11,0-.07,.01-.11v-.08s-.01-.07-.01-.11h.01v-.18s.01-.1,.04-.13c.02-.02,.04-.03,.07-.04,0-.01,.03-.01,.05-.01,.05,0,.1,.02,.13,.05,.01,.02,.03,.04,.04,.06,.01,.02,.01,.05,.01,.07,0,.05,.01,.11,.01,.17v.14s.01,.04,.01,.04c0,.05,.02,.11,.02,.16h-.01v.03Z"/>
  <path class="cls-2" d="M213.53,22.01h0c0,.06-.02,.09-.05,.13-.01,.01-.03,.02-.04,.03,0,.01-.03,.01-.04,.01-.02,0-.03,0-.05,0-.05,0-.09-.02-.12-.05l-.02-.02s-.04-.07-.04-.11c0-.03,.01-.07,.03-.09h.01s.01-.01,.01-.01h0s.01-.01,.01-.01h0s.03-.04,.03-.04c.01-.01,.03-.01,.04-.01,.02-.01,.03-.01,.05-.01s.03,0,.05,.01h.03s0,.01,0,.01c.01,0,.02,0,.03,.02h.01s.03,.05,.04,.08h0v.02s.01,.02,.01,.03Z"/>
  <path class="cls-2" d="M213.4,22.03s.09-.02,.12-.05c.03-.03,.05-.08,.05-.12s-.02-.09-.05-.12c-.03-.03-.08-.05-.12-.05s-.09,.02-.12,.05c-.03,.03-.05,.08-.05,.12s.02,.09,.05,.12c.03,.03,.08,.05,.12,.05Z"/>
  <path class="cls-2" d="M213.58,21.84v.14s0,.05-.01,.07c.01,.02,.01,.04,0,.07,0,.02,0,.05-.02,.07,0,.01-.01,.01-.01,.02l-.02,.04s-.08,.05-.13,.05-.09-.02-.13-.05c0-.02-.02-.04-.03-.06-.01-.02-.02-.05-.02-.07v-.11s.01-.01,.01-.01v-.02s-.01-.01,0-.02t-.01-.02v-.02h0s.01-.02,.01-.02t0-.02v-.04h.01v-.02h0v-.02h.01s.01-.04,.02-.05c.01-.02,.03-.03,.05-.04,.02-.02,.04-.02,.06-.02,.03,0,.05,0,.07,0,.03,0,.05,.01,.06,.03,0,0,0,0,0,.01,.01,0,.02,.01,.02,.02t.01,.01h0s.01,.01,.01,.01h0s.01,.01,.01,.02h0v.02s.02,.02,0,.03h.01Z"/>
  <g>
    <path class="cls-1" d="M213.69,44.13c-.24,1.07-.7,3.02-2.25,4.93-.7,.86-1.54,1.61-2.48,2.22-.63,.41-1.31,.76-2,1.06-.85,.37-1.72,.68-2.6,.94-4.1,1.14-8.15,.47-8.15,.47-1.52-.26-4.12-.72-6.74-2.58-.12-.09-2.64-1.92-3.78-4.11-.26-.49-.26-.66-.71-1.52,0,0-.29-.57-.81-2.2h0s-.01-.11-.01-.11l-.03-.21s.01-.02,.01-.03v.02s.01,.01,.01,.01c0,.01,.01,.02,.01,.02h0c-.01,.07,0,.1,.02,.15,0,.02,.02,.04,.04,.06,.01,.02,.03,.03,.05,.04,.02,.02,.04,.02,.06,.03,.03,0,.05,0,.07-.01,.05,0,.09-.04,.11-.08,.01-.01,.01-.03,.01-.05,0,0,.01-.01,.01-.02,.03-.03,.04-.06,.04-.1,0-.05-.02-.09-.05-.12h-.01s.02-.05,.03-.08v-.07s-.01-.01-.01-.02c-.01-.01-.02-.03-.03-.04-.01-.02-.02-.03-.04-.04-.03,0-.05-.02-.07-.03-.03,0-.05,0-.07,.01l-.04,.02s-.02,.02-.02,.02h0s-.03,.02-.04,.04c-.01,.01-.01,.02-.02,.03,0,.01-.02,.02-.02,.03,.04-.58,.52-1.02,1.11-1.02h4.61c.56,0,1.03,.4,1.11,.94-.02-.04-.04-.06-.07-.08-.04-.02-.09-.02-.13-.01-.05,.01-.09,.04-.11,.08-.02,.03-.03,.07-.03,.11,0,.03,0,.06,.01,.09h-.01s-.02,.02-.03,.03c-.03,.03-.05,.08-.05,.13,0,.06,.01,.12,.01,.17,0,.06,.02,.12,.02,.18v.15s-.02,.03-.02,.04c0,.04,.01,.07,.03,.1h0s.04,.05,.07,.07c.03,.01,.07,.02,.1,.01,.03,0,.06-.01,.09-.03,.02-.02,.04-.04,.06-.07,.03-.07,.04-.16,.02-.24v-.05s.08,.02,.11,0c.04-.02,.08-.05,.1-.09,.01-.03,.01-.06,.01-.08,.17,.29,.26,.76,.66,1.36,.23,.35,.51,.66,.82,.94,1.03,.76,1.91,1.32,2.48,1.52,2.83,.97,6.03,.35,6.03,.35,1.32-.25,2.48-.47,3.66-1.4,1-.79,1.74-1.85,2.13-3.05,.22-.72,.3-1.48,.23-2.23-.04-.48-.08-.93-.35-1.41-.33-.58-.82-.9-1.3-1.17-1.74-.98-3.07-1.29-3.07-1.29-2.02-.47-4.02-1.02-6.03-1.52-2.12-.54-3.48-.87-4.96-1.53-1.85-.82-5.17-2.28-6.85-5.74-1.9-3.94-.57-8.14,.59-10.21,.6-1.04,1.36-1.99,2.24-2.81,.88-.78,1.88-1.42,2.96-1.88,0,0,.33-.16,.7-.31,3.31-1.37,7.33-1.45,7.33-1.45,1.83-.04,3.66,.16,5.43,.59,.86,.21,1.81,.46,2.96,1.05,1.2,.63,2.28,1.47,3.19,2.47,0,0,2.22,1.98,3.42,5.39,.01,.02,.06,.16,.08,.35-.01-.02-.03-.04-.04-.06-.03-.03-.08-.05-.13-.05-.02,0-.04,0-.05,.01-.03,.01-.05,.02-.07,.04-.03,.03-.05,.08-.05,.13v.14s.01,.04,.01,.04h-.01s0,.07,.01,.11v.08s-.01,.07-.01,.11,.01,.07,.01,.11c-.02,.02-.03,.06-.03,.09,0,.04,.01,.08,.04,.11,0,.02,.01,.05,.02,.07,.01,.02,.02,.04,.03,.06,.04,.03,.08,.05,.13,.05s.09-.02,.13-.05l.02-.04c-.11,.66-.68,1.16-1.39,1.16h-4.01c-.69,0-1.26-.48-1.38-1.12,.01,.02,.03,.03,.05,.04,.04,.02,.09,.03,.13,.02,.04,0,.06-.02,.08-.05,.01-.01,.02-.02,.03-.03,0-.01,.01-.01,.01-.02,.02-.02,.03-.05,.03-.07v-.03s0-.03-.01-.04c-.03-.08-.06-.15-.1-.22-.02-.03-.04-.06-.05-.08-.01-.03-.02-.07-.05-.11v-.02s0-.09-.05-.12t-.02-.02s-.07-.03-.1-.03c-.05,0-.09,.02-.13,.05l-.03,.04s-.02,.05-.02,.08c-.01,.03,0,.07,0,.1-.03-.06-.06-.15-.16-.36-.74-1.49-1.99-2.34-2.37-2.58-.95-.6-1.79-.73-3.07-.94-1.37-.22-2.76-.22-4.13,0-1.25,.22-2.51,.44-3.78,1.41-.9,.66-1.6,1.55-2.01,2.58-.25,.63-.37,1.31-.36,1.99,.01,.66,.17,1.3,.48,1.88,.63,1.13,1.71,1.63,2.24,1.88,.19,.08,.39,.16,.59,.23,2.54,.86,5.32,1.53,5.32,1.53,2.2,.52,3.36,.8,4.96,1.28,1.4,.43,2.18,.72,2.95,1.06,.95,.42,1.89,.84,2.96,1.64,.79,.6,1.74,1.31,2.48,2.58,.63,1.08,.88,2.19,1.06,2.93,.1,.43,.18,.86,.24,1.29,.14,1.34,.06,2.68-.24,3.99Z"/>
    <path class="cls-1" d="M184.52,42.94s.05,.07,.05,.12c0,.04,0,.07-.04,.1,0,.01-.01,.02-.01,.02,0,.02,0,.04-.01,.05-.02,.04-.06,.07-.11,.08-.02,.01-.04,.01-.07,.01-.02-.01-.04-.01-.06-.03-.02-.01-.04-.02-.05-.04-.02-.02-.03-.04-.04-.06-.02-.05-.03-.08-.02-.14h0s-.01-.02-.01-.03h0s-.01-.03-.01-.03h.01v-.02h.01s.01-.01,.01-.01c.01-.03,.03-.05,.05-.05,.05-.07,.12-.1,.21-.12,.02,0,.04-.01,.06-.01,.01,0,.02-.01,.04-.01,0,.01,.01,.01,.01,.02v.07s-.01,.05-.03,.07h0s.01,0,.01,0Z"/>
    <path class="cls-1" d="M191.18,43.24s0,.05-.01,.08c-.02,.04-.06,.07-.1,.09-.03,.02-.07,.02-.11,0v.05c.02,.08,.01,.17-.02,.24-.02,.03-.04,.05-.06,.07-.03,.02-.06,.03-.09,.03-.03,0-.07,0-.1-.01-.03-.02-.05-.04-.07-.06h-.01s.01-.01,.01-.01c-.02-.03-.03-.06-.03-.1,0,0,.01-.03,.02-.04v-.15c0-.06-.02-.12-.02-.18,0-.05-.01-.11-.01-.17,0-.05,.02-.1,.05-.13,.01-.01,.02-.02,.03-.02h.01s.03-.01,.03-.01c.06,0,.12,.01,.19,.04,.04,.01,.07,.03,.1,.07h.01s.07,.05,.09,.08c.02,.02,.04,.04,.05,.06,.02,.02,.03,.04,.04,.07Z"/>
    <path class="cls-1" d="M207.09,22.11s-.02-.01-.02-.01c-.13-.02-.25-.07-.35-.15-.04-.03-.08-.06-.12-.1l-.02-.02s-.01-.01-.01-.02l-.03-.03s-.01-.02-.01-.04c0-.03-.01-.07,0-.1,0-.03,.01-.06,.02-.08l.03-.04s.08-.05,.13-.05c.03,0,.07,.01,.1,.03t.02,.02s.05,.08,.05,.12v.02s.04,.08,.05,.11c0,.02,.03,.05,.05,.08,.04,.07,.07,.14,.1,.22,.01,.01,.01,.03,.01,.04Z"/>
    <path class="cls-1" d="M213.55,21.5s-.01,.03-.01,.05v.06s-.01,.02-.01,.03v.03s-.01,.03-.02,.05h0s-.02,.03-.02,.03c0,.03-.01,.05-.03,.07t-.01,.02h0s-.01,.02-.01,.02c-.02,.03-.04,.05-.06,.06,0,.02-.02,.03-.04,.04h-.01s-.03,.03-.05,.03c-.01,0-.02,0-.03,0h-.01s-.01,.01-.02,0c0,0,0,.01-.01,.01h-.04s.01-.07,.03-.09c0-.04-.01-.07-.01-.11s0-.07,.01-.11v-.08s-.01-.07-.01-.11h.01v-.18s.01-.1,.04-.13c.02-.02,.04-.03,.07-.04,0-.01,.03-.01,.05-.01,.05,0,.1,.02,.13,.05,.01,.02,.03,.04,.04,.06,.01,.02,.01,.05,.01,.07,0,.05,.01,.11,.01,.17Z"/>
    <path class="cls-1" d="M184.52,42.94s.05,.07,.05,.12c0,.04,0,.07-.04,.1,0,.01-.01,.02-.01,.02,0,.02,0,.04-.01,.05-.02,.04-.06,.07-.11,.08-.02,.01-.04,.01-.07,.01-.02-.01-.04-.01-.06-.03-.02-.01-.04-.02-.05-.04-.02-.05-.03-.1-.04-.16v-.02s-.01-.03-.01-.05c-.01-.02-.01-.04,0-.06h-.01s-.01-.03,0-.05t0-.02v-.03s0-.01,.01-.02h0v-.03s.01-.02,.02-.03c.01-.01,.01-.02,.02-.03,.01-.02,.02-.03,.04-.04h0s.01-.02,.02-.02l.04-.02s.04-.01,.07-.01c.02,.01,.04,.02,.07,.03,.02,.01,.03,.02,.04,.04,0,.01,.02,.03,.03,.04,0,.01,.01,.01,.01,.02v.07s-.01,.05-.03,.07h0s.01,0,.01,0Z"/>
    <path class="cls-1" d="M191.01,42.88v.06s0,.06,0,.09h0s0,.03-.01,.04c0,.06-.02,.12-.04,.17,0,0-.01,.02-.01,.02h0s-.02,.07-.03,.09c0,.01-.01,.02-.02,.03-.01,.04-.03,.07-.05,.1t-.01,.02c-.06,.09-.13,.17-.21,.23h-.01s.01-.01,.01-.01c-.02-.03-.03-.06-.03-.1,0,0,.01-.03,.02-.04v-.15c0-.06-.02-.12-.02-.18,0-.05-.01-.11-.01-.17,0-.05,.02-.1,.05-.13,.01-.01,.02-.02,.03-.02h.01s-.01-.07-.01-.1c0-.04,.01-.08,.03-.11,.02-.04,.06-.07,.11-.08,.04-.01,.09-.01,.13,.01,.03,.02,.05,.04,.07,.08v.03s0,.05,0,.07c0,.02,0,.03,0,.05Z"/>
    <path class="cls-1" d="M191.16,43.16s-.02-.06-.04-.09c-.01-.06-.03-.11-.06-.16-.02-.05-.04-.1-.05-.15,0-.01,0-.02,0-.03-.02-.04-.04-.06-.07-.08-.04-.02-.09-.02-.13-.01-.05,.01-.09,.04-.11,.08-.02,.03-.03,.07-.03,.11,0,.03,0,.06,.01,.09h-.01s-.02,.02-.03,.03c-.03,.03-.05,.08-.05,.13,0,.06,.01,.12,.01,.17,0,.06,.02,.12,.02,.18v.15s-.02,.03-.02,.04c0,.04,.01,.07,.03,.1h0s.04,.05,.07,.07c.03,.01,.07,.02,.1,.01,.03,0,.06-.01,.09-.03,.02-.02,.04-.04,.06-.07,.03-.07,.04-.16,.02-.24v-.05s.08,.02,.11,0c.04-.02,.08-.05,.1-.09,.01-.03,.01-.06,.01-.08v-.04s-.01-.03-.02-.04Z"/>
  </g>
  <path class="cls-2" d="M184.57,43.06s0,.07-.04,.1c0,.01-.01,.02-.01,.02-.03,.04-.08,.06-.13,.06-.03,0-.06-.01-.08-.03h-.01s-.02-.02-.03-.03c-.03-.03-.05-.07-.05-.12s.02-.09,.05-.12c.03-.04,.08-.06,.12-.06,.05,0,.09,.02,.12,.05h0s.01,0,.01,0c.03,.03,.05,.07,.05,.12Z"/>
  <path class="cls-2" d="M184.55,43.05s0,.05-.01,.07c0,.01-.01,.01-.01,.02-.01,.01-.02,.03-.03,.04-.01,0-.03,.03-.06,.03-.02,.02-.04,.02-.06,.02-.03,0-.05,0-.07-.02h-.01s-.03-.02-.05-.03c-.02-.02-.04-.04-.05-.06v-.02s-.02-.01-.02-.01v-.02s-.02-.01-.02-.02h0s-.01-.02-.01-.03h0s-.01-.03-.01-.03h0v-.02s0-.03-.01-.04c0-.03,.01-.05,.02-.07,0,0,0-.01,.01,0t.01-.02h0s.01-.04,.02-.06c.01-.01,.01-.02,.02-.03,.01-.02,.02-.03,.04-.04h0s.01-.02,.02-.02l.04-.02s.04-.01,.07-.01c.02,.01,.04,.02,.07,.03,.02,.01,.03,.02,.04,.04,0,.01,.02,.03,.03,.04,0,.01,.01,.01,.01,.02v.07s-.01,.05-.03,.07h0s.02,.04,.03,.06c.01,.02,.01,.04,.01,.06Z"/>
  <path class="cls-2" d="M184.53,43.1v.06s-.01,.02-.01,.02c0,.02,0,.04-.01,.05-.02,.04-.06,.07-.11,.08-.02,.01-.04,.01-.07,.01-.02-.01-.04-.01-.06-.03-.02-.01-.04-.02-.05-.04-.02-.02-.03-.04-.04-.06-.02-.05-.03-.08-.02-.14h0s-.01-.02-.01-.03v-.05h0s.01-.01,.01-.01c-.01-.02-.01-.03,0-.05t0-.02v-.03s0-.01,.01-.02h0v-.03s.01-.02,.02-.03c.01-.01,.01-.02,.02-.03,.01-.02,.02-.03,.04-.04h0s.08-.03,.13-.01c.04,.01,.08,.04,.1,.08,.02,.04,.03,.09,.02,.13v.02h0s0,0,0,0h0s-.01,.01-.01,.01h0v.03s0,.02,.01,.03c0,.03,0,.07,.03,.09Z"/>
  <path class="cls-3" d="M60.18,44.25c-1.79,0-3.41,.7-4.58,1.82l-8.22-4.93c2.25-2.7,3.59-6.13,3.59-9.85,0-.46-.02-.91-.07-1.36l4.71-1.15c1.14,1.89,3.26,3.15,5.69,3.15,3.66,0,6.62-2.86,6.62-6.39s-2.96-6.39-6.62-6.39-6.61,2.86-6.61,6.39c0,.19,.01,.38,.03,.57l-4.32,1.05c-1.21-4.33-4.29-7.93-8.36-9.94l1.87-5.69h.09c3.29,0,5.96-2.58,5.96-5.76s-2.67-5.77-5.96-5.77-5.97,2.58-5.97,5.77c0,2.11,1.17,3.95,2.93,4.96l-1.77,5.39c-1.49-.43-3.07-.66-4.7-.66-3.71,0-7.13,1.17-9.88,3.17h-.08s-.06-.02-.09-.03h0s-.04-.03-.05-.04-.02,0-.03-.02h-.01l-5.69-5.46c.5-.79,.78-1.71,.78-2.69,0-2.93-2.49-5.31-5.55-5.31s-5.56,2.38-5.56,5.31,2.49,5.3,5.56,5.3c1.01,0,1.96-.26,2.77-.72l5.44,5.21,.06,.19s.02,.07,.03,.1c0,.01,0,.03,0,.04h0v.24c-2.59,2.79-4.18,6.49-4.18,10.54,0,.22,0,.43,.02,.64l-7.18,2.12c-1.05-1.55-2.88-2.58-4.95-2.58-3.26,0-5.9,2.54-5.9,5.68s2.64,5.69,5.9,5.69,5.91-2.55,5.91-5.69c0-.1,0-.2-.02-.3l6.66-1.96c.8,3.36,2.73,6.31,5.38,8.46l-3.94,7.11c-.56-.15-1.15-.23-1.76-.23-3.75,0-6.79,2.94-6.79,6.57s3.04,6.56,6.79,6.56,6.79-2.94,6.79-6.56c0-2-.93-3.8-2.39-5l3.76-6.78c2.41,1.34,5.21,2.1,8.2,2.1,.17,0,.34,0,.51,0l1.5,7.24h0c-1.89,.92-3.19,2.83-3.19,5.03,0,3.1,2.59,5.62,5.79,5.62s5.79-2.52,5.79-5.62-2.35-5.38-5.33-5.61l-1.45-7.04c2.7-.57,5.15-1.79,7.16-3.47l8.74,5.24c-.25,.67-.38,1.39-.38,2.14,0,3.53,2.93,6.39,6.55,6.39s6.56-2.86,6.56-6.39-2.94-6.39-6.56-6.39Zm-32.07-10.44c-.54,.15-2.4,.65-3.85-.12-.45-.26-.86-.57-1.23-.93-.21-.23-.4-.46-.59-.71-.17-.22-.33-.46-.47-.7-.05-.08-.13-.23-.24-.47-.19-.42-.35-.85-.47-1.29-.1-.26-.17-.53-.22-.81-.03-.24-.03-.48,0-.71l9.55,4.18s.05,.03,.07,.05c.02,.02,.04,.04,.05,.07,.08,.34-1.32,1.1-2.6,1.44Zm18.62-4.91c-.05,.27-.13,.53-.23,.79-.14,.43-.3,.86-.49,1.27-.12,.23-.2,.38-.25,.46-.14,.24-.3,.47-.47,.68-.18,.24-.38,.47-.59,.69-.36,.35-.77,.65-1.22,.89-1.41,.73-3.2,.18-3.72,.02-1.22-.38-2.56-1.16-2.46-1.5,.01-.03,.02-.05,.04-.07,.02-.02,.05-.04,.07-.05l9.34-3.9c.03,.24,.02,.48-.02,.72Z"/>
</svg>