<svg width="207" height="76" viewBox="0 0 207 76" fill="none" xmlns="http://www.w3.org/2000/svg">
<path d="M136.012 18.9954C138.518 32.4228 129.728 53.9492 119.947 65.6284C114.183 72.5085 108.317 76 102.509 76H102.416C96.9269 75.9613 91.4479 72.8516 86.1206 66.7451C75.3933 54.4439 67.4811 32.261 69.2225 19.2842L69.8698 14.4215L74.7749 14.3725C79.211 14.3443 83.5966 13.43 87.6732 11.6832C91.7498 9.93648 95.4349 7.39272 98.5113 4.20187L102.583 0L106.654 4.20187C109.739 7.4054 113.438 9.95702 117.531 11.7051C121.624 13.4532 126.027 14.362 130.479 14.3776L135.153 14.4069L136.012 18.9954ZM61.1728 21.7081H0L8.09888 29.8126H61.6144C61.2475 27.1292 61.0998 24.4205 61.1728 21.7132V21.7081ZM143.929 29.8126H198.901L207 21.7132H144.213C144.36 24.4161 144.265 27.1267 143.929 29.8126ZM63.179 37.9171H16.2167L24.3298 46.0212H65.6513L65.6074 45.8989C64.6749 43.2772 63.8647 40.6138 63.1794 37.9171H63.179ZM139.828 46.0208H182.671L190.789 37.9167H142.379C141.76 40.3207 140.971 42.8965 139.965 45.6536L139.828 46.0208ZM32.4481 54.121L40.566 62.2251H73.2694C71.7014 59.6001 70.272 56.8951 68.9871 54.121H32.4481ZM166.434 62.2251L174.552 54.121H136.365C135.031 56.895 133.558 59.5999 131.95 62.2251H166.434Z" fill="white"/>
</svg>
