<svg width="151" height="131" viewBox="0 0 151 131" fill="none" xmlns="http://www.w3.org/2000/svg">
<path d="M4.11285 123.085L21.6438 116.659L48.2825 110.454L51.6974 116.216L59.6171 121.251L72.7131 119.54L81.5387 122.199L94.0233 122.642L105.653 111.662L120.44 117.765L132.427 120.647L151 131H0L4.11285 123.085ZM79.6982 58.9571L77.7975 62.1197C80.9939 64.0488 84.6338 64.1405 88.2135 63.1348C89.9302 62.6327 91.5972 61.9742 93.1933 61.1677C93.0951 63.1538 93.0793 66.4113 93.1332 70.431L87.1712 69.5233L88.394 105.893L94.6411 105.624C94.8596 108.638 95.1004 111.466 95.3602 113.986L91.9642 117.193L82.4321 116.855L74.2622 114.397L73.1534 114.062L72.0066 114.211L60.8557 115.662L59.3066 114.676C61.8758 102.696 64.8346 75.741 65.4872 69.8617C65.7691 67.5625 65.8755 65.2443 65.8039 62.9293L68.937 61.2405L69.1587 59.2196L68.2084 57.1575H65.3953L63.9222 54.2701L63.3425 54.4694C63.0874 54.123 62.8091 53.7944 62.5094 53.4858L62.484 53.4605L54.8811 45.2757L55.6287 43.3781L55.2549 41.139L52.5591 40.3926L51.9033 37.23L47.6742 37.5052L37.8697 26.9453C38.0376 25.5759 38.82 23.8365 40.0555 22.4671C41.2276 21.1514 42.6722 20.3133 43.8189 20.0825L62.5094 39.8202L65.5157 37.7487L51.8653 9.57633C52.4134 8.3113 53.6742 7.00198 55.2644 6.15124C56.7977 5.32897 58.4672 5.0475 59.6203 5.20247L74.0341 34.3837L77.5187 33.2673L72.3583 1.98295C73.2073 1.13537 74.7849 0.328909 76.4765 0.085389C76.8491 0.0323832 77.2248 0.0038596 77.6011 0H77.9717C79.0715 0.0130127 80.1514 0.29421 81.1174 0.819111L85.8882 30.6487L89.5091 30.7594L95.1384 5.32897C97.0043 6.79641 101.233 10.3164 101.233 10.3164L103.53 9.58898L97.3148 37.8404H97.3338L96.8776 39.836L96.6748 40.7469L99.4879 42.5748C104.018 39.7728 108.478 36.8822 112.245 35.5634C114.71 34.7095 116.743 34.5513 118.378 35.1933C119.724 35.7215 120.995 36.8917 122.148 39.1244C112.73 43.7134 104.455 50.0512 97.3591 54.5389C93.5988 56.9172 90.1712 58.7578 87.2219 59.5991C84.2726 60.4403 81.9221 60.3012 79.6982 58.9571ZM76.581 79.6373V87.86L80.1861 90.7538L78.6718 92.7146L78.7605 98.6887L81.3899 101.582L85.1723 104.713L84.0319 70.7915L81.3899 72.5499L78.9379 79.6436H76.581V79.6373Z" fill="white"/>
</svg>
