<svg width="128" height="128" viewBox="0 0 128 128" fill="none" xmlns="http://www.w3.org/2000/svg">
<path d="M62.131 0.0271689C45.8074 0.502904 30.2831 7.1985 18.7363 18.7432C8.04862 29.4362 1.49106 43.5654 0.224957 58.6285C-1.04115 73.6917 3.06591 88.7168 11.8188 101.043C20.5716 113.369 33.4054 122.201 48.0473 125.974C62.6893 129.747 78.1945 128.218 91.8169 121.658C93.1517 123.152 94.9789 124.118 96.9659 124.379C98.9529 124.64 100.968 124.18 102.643 123.081C104.319 121.982 105.545 120.318 106.097 118.392C106.649 116.466 106.491 114.406 105.651 112.587C106.887 111.524 108.089 110.41 109.255 109.246C115.218 103.317 119.945 96.2638 123.163 88.4955C126.38 80.7271 128.024 72.3979 128 63.99C128 55.43 126.283 46.9569 122.949 39.0724C119.615 31.1879 114.733 24.0523 108.591 18.088C102.449 12.1238 95.1723 7.45229 87.192 4.35C79.2117 1.24771 70.6898 -0.222247 62.131 0.0271689ZM64.3577 4.16929C76.134 4.266 87.6195 7.83786 97.3726 14.4366C107.126 21.0353 114.712 30.367 119.18 41.2604C123.647 52.1539 124.796 64.1237 122.484 75.6679C120.171 87.2121 114.499 97.8162 106.18 106.149C105.103 107.216 103.99 108.244 102.842 109.234C101.472 108.286 99.85 107.769 98.1843 107.749C96.5186 107.728 94.8848 108.206 93.4922 109.12C92.0997 110.034 91.0118 111.343 90.368 112.878C89.7243 114.414 89.5539 116.108 89.8789 117.741C81.7709 121.658 72.8824 123.694 63.8772 123.696C54.8719 123.697 45.9827 121.665 37.8732 117.751C29.7637 113.837 22.6436 108.141 17.0445 101.09C11.4455 94.0393 7.51214 85.8148 5.53831 77.031C3.56447 68.2473 3.60112 59.1312 5.64551 50.3636C7.6899 41.596 11.6892 33.4034 17.3448 26.3977C23.0004 19.3919 30.166 13.754 38.3067 9.90495C46.4474 6.05591 55.3527 4.09522 64.3577 4.16929ZM62.1449 21.6146C51.1751 22.094 40.8183 26.8062 33.2515 34.7606V36.6267H40.1671L42.3514 41.1621L47.9929 39.8892L55.0902 39.3448L62.5437 42.9834L66.3681 46.8192L63.9956 50.0851L56.5421 51.5397L60.3529 56.898L61.6493 58.9195L58.1789 63.99L52.9025 62.5061L48.3657 64.3594L46.7296 67.732H39.6323L36.7478 64.1229V57.5748L31.4433 56.8947L28.7147 62.5028L27.804 69.7311L30.1692 75.5626L34.7062 80.6552L36.7356 87.0214L34.8879 89.2051L28.4977 87.2384C34.0864 95.7323 42.5394 101.938 52.3189 104.727C62.0984 107.517 72.5544 106.703 81.7848 102.436C91.0152 98.1687 98.4066 90.7305 102.614 81.4748C106.822 72.2191 107.566 61.7609 104.712 52.0028L101.49 61.424L86.0325 75.5526L82.9279 71.4413L89.7008 58.9259L89.4901 51.355L82.9279 55.7088L80.9283 48.115L89.4932 30.3868H89.8889C81.9643 24.2848 72.1381 21.1779 62.1449 21.6146ZM71.0732 69.2089L76.2583 70.4374L77.9142 78.5366L69.6443 86.2862L68.3707 100.162L62.9652 103.366L59.3164 94.9785L51.1595 90.3226L47.4681 80.0074L50.9811 72.2639L71.0732 69.2089Z" fill="white"/>
</svg>
